<svg width="44" height="44" viewBox="0 0 44 44" fill="none" xmlns="http://www.w3.org/2000/svg">
<g clip-path="url(#clip0_1050_8079)">
<path d="M34.1707 5.38062C34.1707 4.90598 33.786 4.52124 33.3113 4.52124H33.3064C32.8318 4.52124 32.4495 4.90598 32.4495 5.38062C32.4495 5.85525 32.8366 6.23999 33.3112 6.23999C33.7859 6.23999 34.1707 5.85525 34.1707 5.38062Z" fill="#0669F7"/>
<path d="M38.8062 5.38062C38.8062 4.90598 38.4215 4.52124 37.9468 4.52124H37.9419C37.4673 4.52124 37.085 4.90598 37.085 5.38062C37.085 5.85525 37.4721 6.23999 37.9467 6.23999C38.4214 6.23999 38.8062 5.85525 38.8062 5.38062Z" fill="#0669F7"/>
<path d="M29.5369 5.38062C29.5369 4.90598 29.1522 4.52124 28.6775 4.52124H28.6726C28.198 4.52124 27.8157 4.90598 27.8157 5.38062C27.8157 5.85525 28.2028 6.23999 28.6775 6.23999C29.1521 6.23999 29.5369 5.85525 29.5369 5.38062Z" fill="#0669F7"/>
<path d="M5.19434 5.38062C5.19434 5.85525 5.57908 6.23999 6.05371 6.23999H18.9543C19.4289 6.23999 19.8137 5.85525 19.8137 5.38062C19.8137 4.90598 19.4289 4.52124 18.9543 4.52124H6.05371C5.57916 4.52124 5.19434 4.90598 5.19434 5.38062Z" fill="#0669F7"/>
<path d="M41.2254 0H14.3573C13.8826 0 13.4979 0.384742 13.4979 0.859375C13.4979 1.33401 13.8826 1.71875 14.3573 1.71875H41.2254C41.7979 1.71875 42.2636 2.18341 42.2636 2.75455V9.04234H1.73633V2.75455C1.73633 2.18341 2.20099 1.71875 2.77213 1.71875H6.64035C7.11498 1.71875 7.49973 1.33401 7.49973 0.859375C7.49973 0.384742 7.11498 0 6.64035 0H2.77213C1.25327 0 0.0175781 1.2357 0.0175781 2.75455V41.243C0.0175781 42.7632 1.25327 44 2.77213 44H41.2254C42.7455 44 43.9823 42.7632 43.9823 41.243V2.75455C43.9823 1.2357 42.7455 0 41.2254 0ZM41.2254 42.2812H2.77213C2.20099 42.2812 1.73633 41.8155 1.73633 41.243V10.7611H42.2636V41.243C42.2636 41.8155 41.7978 42.2812 41.2254 42.2812Z" fill="#0669F7"/>
<path d="M8.04908 32.8807C6.07492 32.8807 4.46875 34.4868 4.46875 36.4611C4.46875 38.4339 6.07484 40.039 8.04908 40.039C10.0219 40.039 11.6269 38.4339 11.6269 36.4611C11.6269 34.4869 10.0219 32.8807 8.04908 32.8807ZM8.04908 38.3203C7.02264 38.3203 6.1875 37.4863 6.1875 36.4612C6.1875 35.4347 7.02255 34.5996 8.04908 34.5996C9.07414 34.5996 9.90816 35.4347 9.90816 36.4612C9.90816 37.4863 9.07423 38.3203 8.04908 38.3203Z" fill="#0669F7"/>
<path d="M17.3486 32.8807C15.3757 32.8807 13.7708 34.4868 13.7708 36.4611C13.7708 38.4339 15.3758 40.039 17.3486 40.039C19.3214 40.039 20.9264 38.4339 20.9264 36.4611C20.9264 34.4869 19.3215 32.8807 17.3486 32.8807ZM17.3486 38.3203C16.3234 38.3203 15.4895 37.4863 15.4895 36.4612C15.4895 35.4347 16.3235 34.5996 17.3486 34.5996C18.3736 34.5996 19.2077 35.4347 19.2077 36.4612C19.2077 37.4863 18.3737 38.3203 17.3486 38.3203Z" fill="#0669F7"/>
<path d="M26.6481 32.8807C24.6753 32.8807 23.0703 34.4868 23.0703 36.4611C23.0703 38.4339 24.6754 40.039 26.6481 40.039C28.6223 40.039 30.2285 38.4339 30.2285 36.4611C30.2284 34.4869 28.6223 32.8807 26.6481 32.8807ZM26.6481 38.3203C25.623 38.3203 24.7891 37.4863 24.7891 36.4612C24.7891 35.4347 25.6231 34.5996 26.6481 34.5996C27.6746 34.5996 28.5097 35.4347 28.5097 36.4612C28.5096 37.4863 27.6746 38.3203 26.6481 38.3203Z" fill="#0669F7"/>
<path d="M35.9512 32.8807C33.977 32.8807 32.3708 34.4868 32.3708 36.4611C32.3708 38.4339 33.9769 40.039 35.9512 40.039C37.924 40.039 39.529 38.4339 39.529 36.4611C39.529 34.4869 37.924 32.8807 35.9512 32.8807ZM35.9512 38.3203C34.9247 38.3203 34.0896 37.4863 34.0896 36.4612C34.0896 35.4347 34.9247 34.5996 35.9512 34.5996C36.9763 34.5996 37.8103 35.4347 37.8103 36.4612C37.8103 37.4863 36.9762 38.3203 35.9512 38.3203Z" fill="#0669F7"/>
<path d="M4.47103 28.6923C4.50196 29.1366 4.88163 29.4913 5.3286 29.4913H24.5625C25.0315 29.4913 25.4231 29.1 25.4231 28.6319V14.0867C25.4231 13.612 25.0384 13.2273 24.5637 13.2273H5.32739C4.85276 13.2273 4.46802 13.612 4.46802 14.0867V28.6318C4.46905 28.652 4.46999 28.6722 4.47103 28.6923ZM18.7175 27.7726L17.1164 25.2491L19.2582 21.8753L23.0006 27.7726H18.7175ZM16.682 27.7726H6.89068L11.7872 20.0582L16.682 27.7726ZM23.7044 14.946V25.6739L19.9839 19.8112C19.8263 19.5628 19.5525 19.4123 19.2585 19.4123C18.9643 19.4123 18.6906 19.5628 18.5329 19.8111L16.0988 23.6453L12.5131 17.9941C12.3554 17.7456 12.0817 17.5952 11.7875 17.5951C11.7875 17.5951 11.7875 17.5951 11.7874 17.5951C11.4932 17.5951 11.2195 17.7455 11.0618 17.9939L6.18668 25.6744V14.946H23.7044Z" fill="#0669F7"/>
<path d="M29.0508 14.946H38.6361C39.1107 14.946 39.4955 14.5613 39.4955 14.0867C39.4955 13.612 39.1107 13.2273 38.6361 13.2273H29.0508C28.5761 13.2273 28.1914 13.612 28.1914 14.0867C28.1914 14.5613 28.5761 14.946 29.0508 14.946Z" fill="#0669F7"/>
<path d="M29.0508 19.7084H38.6361C39.1107 19.7084 39.4955 19.3236 39.4955 18.849C39.4955 18.3744 39.1107 17.9896 38.6361 17.9896H29.0508C28.5761 17.9896 28.1914 18.3744 28.1914 18.849C28.1914 19.3236 28.5761 19.7084 29.0508 19.7084Z" fill="#0669F7"/>
<path d="M29.0508 24.4684H38.6361C39.1107 24.4684 39.4955 24.0836 39.4955 23.609C39.4955 23.1344 39.1107 22.7496 38.6361 22.7496H29.0508C28.5761 22.7496 28.1914 23.1344 28.1914 23.609C28.1914 24.0836 28.5761 24.4684 29.0508 24.4684Z" fill="#0669F7"/>
<path d="M29.0508 29.2281H38.6361C39.1107 29.2281 39.4955 28.8434 39.4955 28.3688C39.4955 27.8941 39.1107 27.5094 38.6361 27.5094H29.0508C28.5761 27.5094 28.1914 27.8941 28.1914 28.3688C28.1914 28.8434 28.5761 29.2281 29.0508 29.2281Z" fill="#0669F7"/>
<path d="M10.498 1.71875H10.5029C10.9775 1.71875 11.3598 1.33401 11.3598 0.859375C11.3598 0.384742 10.9727 0 10.498 0C10.0234 0 9.63867 0.384742 9.63867 0.859375C9.63867 1.33401 10.0234 1.71875 10.498 1.71875Z" fill="#0669F7"/>
</g>
<defs>
<clipPath id="clip0_1050_8079">
<rect width="44" height="44" fill="white"/>
</clipPath>
</defs>
</svg>
