<svg width="348" height="284" viewBox="0 0 348 284" fill="none" xmlns="http://www.w3.org/2000/svg">
<path d="M53.384 14.196H55.94C56.696 14.196 57.296 14.004 57.74 13.62C58.184 13.224 58.406 12.696 58.406 12.036C58.406 11.364 58.184 10.83 57.74 10.434C57.296 10.026 56.696 9.822 55.94 9.822H53.384V14.196ZM56.264 15.78H53.384V21H51.62V8.238H56.264C57.428 8.238 58.376 8.598 59.108 9.318C59.84 10.038 60.206 10.938 60.206 12.018C60.206 13.11 59.84 14.01 59.108 14.718C58.376 15.426 57.428 15.78 56.264 15.78ZM63.6965 15.906V21H62.0045V7.968H63.6965V13.35C64.2725 12.51 65.1485 12.09 66.3245 12.09C67.3205 12.09 68.0825 12.408 68.6105 13.044C69.1505 13.68 69.4205 14.502 69.4205 15.51V21H67.7285V15.798C67.7285 14.346 67.0565 13.62 65.7125 13.62C65.0885 13.62 64.6025 13.836 64.2545 14.268C63.9065 14.688 63.7205 15.234 63.6965 15.906ZM73.8939 18.948C74.4219 19.488 75.0639 19.758 75.8199 19.758C76.5759 19.758 77.2119 19.488 77.7279 18.948C78.2559 18.396 78.5199 17.634 78.5199 16.662C78.5199 15.702 78.2559 14.952 77.7279 14.412C77.2119 13.86 76.5759 13.584 75.8199 13.584C75.0639 13.584 74.4219 13.86 73.8939 14.412C73.3779 14.952 73.1199 15.702 73.1199 16.662C73.1199 17.634 73.3779 18.396 73.8939 18.948ZM72.6339 13.386C73.4739 12.51 74.5359 12.072 75.8199 12.072C77.1039 12.072 78.1599 12.51 78.9879 13.386C79.8279 14.25 80.2479 15.342 80.2479 16.662C80.2479 17.994 79.8339 19.098 79.0059 19.974C78.1779 20.838 77.1159 21.27 75.8199 21.27C74.5239 21.27 73.4619 20.838 72.6339 19.974C71.8059 19.098 71.3919 17.994 71.3919 16.662C71.3919 15.342 71.8059 14.25 72.6339 13.386ZM84.1047 15.996V21H82.4127V12.342H84.0687V13.584C84.6447 12.588 85.5327 12.09 86.7327 12.09C87.7287 12.09 88.4907 12.408 89.0187 13.044C89.5587 13.68 89.8287 14.502 89.8287 15.51V21H88.1367V15.798C88.1367 14.346 87.4647 13.62 86.1207 13.62C85.4847 13.62 84.9867 13.848 84.6267 14.304C84.2787 14.748 84.1047 15.312 84.1047 15.996ZM93.6181 15.78H98.3521C98.3281 15.132 98.1121 14.604 97.7041 14.196C97.2961 13.776 96.7201 13.566 95.9761 13.566C95.3041 13.566 94.7521 13.788 94.3201 14.232C93.8881 14.664 93.6541 15.18 93.6181 15.78ZM98.6041 18.03L100.062 18.534C99.8101 19.338 99.3421 19.998 98.6581 20.514C97.9741 21.018 97.1461 21.27 96.1741 21.27C94.9621 21.27 93.9301 20.856 93.0781 20.028C92.2381 19.188 91.8181 18.06 91.8181 16.644C91.8181 15.324 92.2261 14.232 93.0421 13.368C93.8581 12.504 94.8301 12.072 95.9581 12.072C97.2661 12.072 98.2861 12.486 99.0181 13.314C99.7501 14.13 100.116 15.228 100.116 16.608C100.116 16.824 100.104 17.004 100.08 17.148H93.5641C93.5761 17.916 93.8281 18.546 94.3201 19.038C94.8241 19.53 95.4421 19.776 96.1741 19.776C97.4101 19.776 98.2201 19.194 98.6041 18.03ZM102.564 20.73C102.324 20.49 102.204 20.196 102.204 19.848C102.204 19.5 102.324 19.206 102.564 18.966C102.804 18.714 103.098 18.588 103.446 18.588C103.794 18.588 104.088 18.714 104.328 18.966C104.58 19.206 104.706 19.5 104.706 19.848C104.706 20.196 104.58 20.49 104.328 20.73C104.088 20.97 103.794 21.09 103.446 21.09C103.098 21.09 102.804 20.97 102.564 20.73ZM102.546 14.394C102.306 14.154 102.186 13.86 102.186 13.512C102.186 13.164 102.306 12.87 102.546 12.63C102.786 12.378 103.08 12.252 103.428 12.252C103.776 12.252 104.07 12.378 104.31 12.63C104.562 12.87 104.688 13.164 104.688 13.512C104.688 13.86 104.562 14.154 104.31 14.394C104.07 14.634 103.776 14.754 103.428 14.754C103.08 14.754 102.786 14.634 102.546 14.394ZM111.547 15.114H114.913V11.604H116.389V15.114H119.773V16.536H116.389V20.082H114.913V16.536H111.547V15.114ZM125.229 21H123.501V12.774H120.675V11.532C121.467 11.52 122.133 11.316 122.673 10.92C123.213 10.512 123.549 9.984 123.681 9.336H125.229V21ZM131.574 21H129.846V12.774H127.02V11.532C127.812 11.52 128.478 11.316 129.018 10.92C129.558 10.512 129.894 9.984 130.026 9.336H131.574V21ZM137.92 21H136.192V12.774H133.366V11.532C134.158 11.52 134.824 11.316 135.364 10.92C135.904 10.512 136.24 9.984 136.372 9.336H137.92V21ZM146.3 13.53L144.536 13.314C144.524 13.206 144.518 13.05 144.518 12.846C144.518 11.802 144.884 10.914 145.616 10.182C146.348 9.438 147.326 9.066 148.55 9.066C149.762 9.066 150.722 9.414 151.43 10.11C152.138 10.794 152.492 11.64 152.492 12.648C152.492 14.124 151.76 15.324 150.296 16.248L147.992 17.724C147.164 18.252 146.69 18.798 146.57 19.362H152.564V21H144.392C144.416 20.016 144.638 19.152 145.058 18.408C145.49 17.664 146.192 16.98 147.164 16.356L149.108 15.096C150.176 14.412 150.71 13.602 150.71 12.666C150.71 12.09 150.518 11.604 150.134 11.208C149.75 10.812 149.21 10.614 148.514 10.614C147.782 10.614 147.224 10.836 146.84 11.28C146.456 11.724 146.264 12.3 146.264 13.008C146.264 13.116 146.276 13.29 146.3 13.53ZM157.339 15.582L156.475 14.124L159.913 10.956H154.333V9.336H162.253V10.92L158.923 13.998C159.871 13.998 160.705 14.31 161.425 14.934C162.157 15.558 162.523 16.428 162.523 17.544C162.523 18.576 162.145 19.458 161.389 20.19C160.633 20.922 159.601 21.288 158.293 21.288C157.009 21.288 155.977 20.934 155.197 20.226C154.429 19.506 154.015 18.636 153.955 17.616L155.683 17.22C155.719 17.976 155.977 18.588 156.457 19.056C156.949 19.512 157.555 19.74 158.275 19.74C159.043 19.74 159.643 19.536 160.075 19.128C160.519 18.708 160.741 18.192 160.741 17.58C160.741 16.872 160.507 16.332 160.039 15.96C159.571 15.588 159.013 15.402 158.365 15.402C158.017 15.402 157.675 15.462 157.339 15.582ZM163.868 18.372V16.338L168.872 9.336H171.302V16.734H173.3V18.372H171.302V21H169.592V18.372H163.868ZM169.592 16.734V11.028L165.488 16.734H169.592ZM178.704 17.832L180.396 17.328C180.444 18.048 180.708 18.63 181.188 19.074C181.68 19.518 182.292 19.74 183.024 19.74C183.732 19.74 184.326 19.524 184.806 19.092C185.286 18.66 185.526 18.09 185.526 17.382C185.526 16.614 185.286 16.02 184.806 15.6C184.326 15.18 183.726 14.97 183.006 14.97C182.13 14.97 181.422 15.252 180.882 15.816C180.714 15.756 180.438 15.648 180.054 15.492C179.67 15.336 179.37 15.216 179.154 15.132L180.666 9.336H186.822V10.956H181.836L180.972 14.304C181.488 13.728 182.28 13.44 183.348 13.44C184.512 13.44 185.46 13.788 186.192 14.484C186.936 15.18 187.308 16.122 187.308 17.31C187.308 18.438 186.912 19.386 186.12 20.154C185.328 20.91 184.296 21.288 183.024 21.288C181.824 21.288 180.822 20.952 180.018 20.28C179.226 19.608 178.788 18.792 178.704 17.832ZM197.386 9.714L196.846 11.154C196.27 10.818 195.574 10.65 194.758 10.65C193.57 10.65 192.604 11.04 191.86 11.82C191.128 12.6 190.726 13.602 190.654 14.826C190.918 14.394 191.314 14.034 191.842 13.746C192.382 13.458 193.012 13.314 193.732 13.314C194.92 13.314 195.88 13.668 196.612 14.376C197.356 15.084 197.728 16.056 197.728 17.292C197.728 18.504 197.308 19.47 196.468 20.19C195.628 20.91 194.608 21.27 193.408 21.27C192.16 21.27 191.086 20.82 190.186 19.92C189.298 19.008 188.854 17.658 188.854 15.87C188.854 13.758 189.418 12.096 190.546 10.884C191.674 9.672 193.114 9.066 194.866 9.066C195.934 9.066 196.774 9.282 197.386 9.714ZM190.906 17.292C190.906 18.024 191.158 18.618 191.662 19.074C192.166 19.518 192.754 19.74 193.426 19.74C194.134 19.74 194.728 19.518 195.208 19.074C195.7 18.63 195.946 18.036 195.946 17.292C195.946 16.536 195.7 15.936 195.208 15.492C194.728 15.048 194.134 14.826 193.426 14.826C192.718 14.826 192.118 15.048 191.626 15.492C191.146 15.936 190.906 16.536 190.906 17.292ZM207.069 9.336V11.028C206.769 11.268 206.475 11.526 206.187 11.802C205.899 12.078 205.515 12.522 205.035 13.134C204.567 13.746 204.153 14.394 203.793 15.078C203.433 15.762 203.091 16.632 202.767 17.688C202.455 18.732 202.245 19.836 202.137 21H200.319C200.391 20.076 200.535 19.182 200.751 18.318C200.967 17.442 201.219 16.68 201.507 16.032C201.795 15.384 202.101 14.778 202.425 14.214C202.761 13.638 203.085 13.158 203.397 12.774C203.721 12.378 204.009 12.042 204.261 11.766C204.525 11.49 204.735 11.286 204.891 11.154L205.125 10.956H198.555V9.336H207.069ZM216.706 14.304C217.33 14.292 217.846 14.112 218.254 13.764C218.662 13.416 218.866 12.96 218.866 12.396C218.866 11.868 218.668 11.424 218.272 11.064C217.876 10.704 217.354 10.524 216.706 10.524C216.058 10.524 215.536 10.704 215.14 11.064C214.744 11.424 214.546 11.868 214.546 12.396C214.546 12.96 214.75 13.416 215.158 13.764C215.566 14.112 216.082 14.292 216.706 14.304ZM214.906 19.182C215.35 19.554 215.95 19.74 216.706 19.74C217.462 19.74 218.056 19.554 218.488 19.182C218.932 18.81 219.154 18.342 219.154 17.778C219.154 17.202 218.932 16.728 218.488 16.356C218.056 15.972 217.462 15.78 216.706 15.78C215.95 15.78 215.35 15.972 214.906 16.356C214.474 16.728 214.258 17.202 214.258 17.778C214.258 18.342 214.474 18.81 214.906 19.182ZM219.802 20.334C219.046 20.958 218.014 21.27 216.706 21.27C215.398 21.27 214.366 20.958 213.61 20.334C212.854 19.698 212.476 18.894 212.476 17.922C212.476 17.238 212.68 16.644 213.088 16.14C213.508 15.624 214.042 15.258 214.69 15.042C214.138 14.838 213.682 14.49 213.322 13.998C212.962 13.494 212.782 12.93 212.782 12.306C212.782 11.358 213.154 10.584 213.898 9.984C214.642 9.372 215.578 9.066 216.706 9.066C217.834 9.066 218.77 9.372 219.514 9.984C220.258 10.584 220.63 11.358 220.63 12.306C220.63 12.918 220.45 13.476 220.09 13.98C219.73 14.484 219.274 14.838 218.722 15.042C219.37 15.246 219.898 15.606 220.306 16.122C220.726 16.638 220.936 17.238 220.936 17.922C220.936 18.894 220.558 19.698 219.802 20.334ZM222.764 20.586L223.34 19.128C223.952 19.5 224.66 19.686 225.464 19.686C226.796 19.686 227.792 19.308 228.452 18.552C229.124 17.784 229.478 16.782 229.514 15.546C229.286 15.966 228.908 16.32 228.38 16.608C227.864 16.896 227.234 17.04 226.49 17.04C225.41 17.04 224.468 16.692 223.664 15.996C222.86 15.288 222.458 14.322 222.458 13.098C222.458 11.922 222.878 10.956 223.718 10.2C224.57 9.444 225.584 9.066 226.76 9.066C228.008 9.066 229.076 9.522 229.964 10.434C230.852 11.346 231.296 12.678 231.296 14.43C231.296 16.614 230.804 18.3 229.82 19.488C228.848 20.676 227.396 21.27 225.464 21.27C225.008 21.27 224.516 21.204 223.988 21.072C223.46 20.94 223.052 20.778 222.764 20.586ZM229.28 13.062C229.28 12.342 229.028 11.754 228.524 11.298C228.02 10.842 227.432 10.614 226.76 10.614C226.076 10.614 225.482 10.842 224.978 11.298C224.486 11.742 224.24 12.33 224.24 13.062C224.24 13.818 224.486 14.418 224.978 14.862C225.47 15.306 226.064 15.528 226.76 15.528C227.444 15.528 228.032 15.306 228.524 14.862C229.028 14.406 229.28 13.806 229.28 13.062ZM237.149 14.304C237.773 14.292 238.289 14.112 238.697 13.764C239.105 13.416 239.309 12.96 239.309 12.396C239.309 11.868 239.111 11.424 238.715 11.064C238.319 10.704 237.797 10.524 237.149 10.524C236.501 10.524 235.979 10.704 235.583 11.064C235.187 11.424 234.989 11.868 234.989 12.396C234.989 12.96 235.193 13.416 235.601 13.764C236.009 14.112 236.525 14.292 237.149 14.304ZM235.349 19.182C235.793 19.554 236.393 19.74 237.149 19.74C237.905 19.74 238.499 19.554 238.931 19.182C239.375 18.81 239.597 18.342 239.597 17.778C239.597 17.202 239.375 16.728 238.931 16.356C238.499 15.972 237.905 15.78 237.149 15.78C236.393 15.78 235.793 15.972 235.349 16.356C234.917 16.728 234.701 17.202 234.701 17.778C234.701 18.342 234.917 18.81 235.349 19.182ZM240.245 20.334C239.489 20.958 238.457 21.27 237.149 21.27C235.841 21.27 234.809 20.958 234.053 20.334C233.297 19.698 232.919 18.894 232.919 17.922C232.919 17.238 233.123 16.644 233.531 16.14C233.951 15.624 234.485 15.258 235.133 15.042C234.581 14.838 234.125 14.49 233.765 13.998C233.405 13.494 233.225 12.93 233.225 12.306C233.225 11.358 233.597 10.584 234.341 9.984C235.085 9.372 236.021 9.066 237.149 9.066C238.277 9.066 239.213 9.372 239.957 9.984C240.701 10.584 241.073 11.358 241.073 12.306C241.073 12.918 240.893 13.476 240.533 13.98C240.173 14.484 239.717 14.838 239.165 15.042C239.813 15.246 240.341 15.606 240.749 16.122C241.169 16.638 241.379 17.238 241.379 17.922C241.379 18.894 241.001 19.698 240.245 20.334ZM65.408 60H63.662V50.064L59.306 60H57.686L53.366 50.064V60H51.62V47.238H54.014L58.514 57.624L63.05 47.238H65.408V60ZM70.2552 57.948C70.7832 58.488 71.4252 58.758 72.1812 58.758C72.9372 58.758 73.5732 58.488 74.0892 57.948C74.6172 57.396 74.8812 56.634 74.8812 55.662C74.8812 54.702 74.6172 53.952 74.0892 53.412C73.5732 52.86 72.9372 52.584 72.1812 52.584C71.4252 52.584 70.7832 52.86 70.2552 53.412C69.7392 53.952 69.4812 54.702 69.4812 55.662C69.4812 56.634 69.7392 57.396 70.2552 57.948ZM68.9952 52.386C69.8352 51.51 70.8972 51.072 72.1812 51.072C73.4652 51.072 74.5212 51.51 75.3492 52.386C76.1892 53.25 76.6092 54.342 76.6092 55.662C76.6092 56.994 76.1952 58.098 75.3672 58.974C74.5392 59.838 73.4772 60.27 72.1812 60.27C70.8852 60.27 69.8232 59.838 68.9952 58.974C68.1672 58.098 67.7532 56.994 67.7532 55.662C67.7532 54.342 68.1672 53.25 68.9952 52.386ZM80.448 60H78.774V46.968H80.448V52.566C80.676 52.146 81.036 51.798 81.528 51.522C82.032 51.234 82.626 51.09 83.31 51.09C84.57 51.09 85.548 51.516 86.244 52.368C86.94 53.22 87.288 54.306 87.288 55.626C87.288 56.958 86.928 58.062 86.208 58.938C85.488 59.802 84.504 60.234 83.256 60.234C81.96 60.234 81.024 59.736 80.448 58.74V60ZM84.858 57.876C85.326 57.312 85.56 56.562 85.56 55.626C85.56 54.69 85.326 53.952 84.858 53.412C84.402 52.86 83.784 52.584 83.004 52.584C82.248 52.584 81.63 52.86 81.15 53.412C80.67 53.964 80.43 54.702 80.43 55.626C80.43 56.55 80.67 57.3 81.15 57.876C81.63 58.44 82.248 58.722 83.004 58.722C83.772 58.722 84.39 58.44 84.858 57.876ZM91.1179 60H89.4439V51.342H91.1179V60ZM89.4079 48.93C89.1799 48.69 89.0659 48.402 89.0659 48.066C89.0659 47.73 89.1799 47.442 89.4079 47.202C89.6479 46.962 89.9359 46.842 90.2719 46.842C90.6079 46.842 90.8959 46.962 91.1359 47.202C91.3759 47.43 91.4959 47.718 91.4959 48.066C91.4959 48.402 91.3759 48.69 91.1359 48.93C90.8959 49.158 90.6079 49.272 90.2719 49.272C89.9359 49.272 89.6479 49.158 89.4079 48.93ZM95.6886 60H93.9966V46.968H95.6886V60ZM99.665 54.78H104.399C104.375 54.132 104.159 53.604 103.751 53.196C103.343 52.776 102.767 52.566 102.023 52.566C101.351 52.566 100.799 52.788 100.367 53.232C99.935 53.664 99.701 54.18 99.665 54.78ZM104.651 57.03L106.109 57.534C105.857 58.338 105.389 58.998 104.705 59.514C104.021 60.018 103.193 60.27 102.221 60.27C101.009 60.27 99.977 59.856 99.125 59.028C98.285 58.188 97.865 57.06 97.865 55.644C97.865 54.324 98.273 53.232 99.089 52.368C99.905 51.504 100.877 51.072 102.005 51.072C103.313 51.072 104.333 51.486 105.065 52.314C105.797 53.13 106.163 54.228 106.163 55.608C106.163 55.824 106.151 56.004 106.127 56.148H99.611C99.623 56.916 99.875 57.546 100.367 58.038C100.871 58.53 101.489 58.776 102.221 58.776C103.457 58.776 104.267 58.194 104.651 57.03ZM108.611 59.73C108.371 59.49 108.251 59.196 108.251 58.848C108.251 58.5 108.371 58.206 108.611 57.966C108.851 57.714 109.145 57.588 109.493 57.588C109.841 57.588 110.135 57.714 110.375 57.966C110.627 58.206 110.753 58.5 110.753 58.848C110.753 59.196 110.627 59.49 110.375 59.73C110.135 59.97 109.841 60.09 109.493 60.09C109.145 60.09 108.851 59.97 108.611 59.73ZM108.593 53.394C108.353 53.154 108.233 52.86 108.233 52.512C108.233 52.164 108.353 51.87 108.593 51.63C108.833 51.378 109.127 51.252 109.475 51.252C109.823 51.252 110.117 51.378 110.357 51.63C110.609 51.87 110.735 52.164 110.735 52.512C110.735 52.86 110.609 53.154 110.357 53.394C110.117 53.634 109.823 53.754 109.475 53.754C109.127 53.754 108.833 53.634 108.593 53.394ZM117.594 54.114H120.96V50.604H122.436V54.114H125.82V55.536H122.436V59.082H120.96V55.536H117.594V54.114ZM129.179 52.53L127.415 52.314C127.403 52.206 127.397 52.05 127.397 51.846C127.397 50.802 127.763 49.914 128.495 49.182C129.227 48.438 130.205 48.066 131.429 48.066C132.641 48.066 133.601 48.414 134.309 49.11C135.017 49.794 135.371 50.64 135.371 51.648C135.371 53.124 134.639 54.324 133.175 55.248L130.871 56.724C130.043 57.252 129.569 57.798 129.449 58.362H135.443V60H127.271C127.295 59.016 127.517 58.152 127.937 57.408C128.369 56.664 129.071 55.98 130.043 55.356L131.987 54.096C133.055 53.412 133.589 52.602 133.589 51.666C133.589 51.09 133.397 50.604 133.013 50.208C132.629 49.812 132.089 49.614 131.393 49.614C130.661 49.614 130.103 49.836 129.719 50.28C129.335 50.724 129.143 51.3 129.143 52.008C129.143 52.116 129.155 52.29 129.179 52.53ZM138.706 52.53L136.942 52.314C136.93 52.206 136.924 52.05 136.924 51.846C136.924 50.802 137.29 49.914 138.022 49.182C138.754 48.438 139.732 48.066 140.956 48.066C142.168 48.066 143.128 48.414 143.836 49.11C144.544 49.794 144.898 50.64 144.898 51.648C144.898 53.124 144.166 54.324 142.702 55.248L140.398 56.724C139.57 57.252 139.096 57.798 138.976 58.362H144.97V60H136.798C136.822 59.016 137.044 58.152 137.464 57.408C137.896 56.664 138.598 55.98 139.57 55.356L141.514 54.096C142.582 53.412 143.116 52.602 143.116 51.666C143.116 51.09 142.924 50.604 142.54 50.208C142.156 49.812 141.616 49.614 140.92 49.614C140.188 49.614 139.63 49.836 139.246 50.28C138.862 50.724 138.67 51.3 138.67 52.008C138.67 52.116 138.682 52.29 138.706 52.53ZM148.233 52.53L146.469 52.314C146.457 52.206 146.451 52.05 146.451 51.846C146.451 50.802 146.817 49.914 147.549 49.182C148.281 48.438 149.259 48.066 150.483 48.066C151.695 48.066 152.655 48.414 153.363 49.11C154.071 49.794 154.425 50.64 154.425 51.648C154.425 53.124 153.693 54.324 152.229 55.248L149.925 56.724C149.097 57.252 148.623 57.798 148.503 58.362H154.497V60H146.325C146.349 59.016 146.571 58.152 146.991 57.408C147.423 56.664 148.125 55.98 149.097 55.356L151.041 54.096C152.109 53.412 152.643 52.602 152.643 51.666C152.643 51.09 152.451 50.604 152.067 50.208C151.683 49.812 151.143 49.614 150.447 49.614C149.715 49.614 149.157 49.836 148.773 50.28C148.389 50.724 148.197 51.3 148.197 52.008C148.197 52.116 148.209 52.29 148.233 52.53ZM160.353 57.372V55.338L165.357 48.336H167.787V55.734H169.785V57.372H167.787V60H166.077V57.372H160.353ZM166.077 55.734V50.028L161.973 55.734H166.077ZM170.689 56.832L172.381 56.328C172.429 57.048 172.693 57.63 173.173 58.074C173.665 58.518 174.277 58.74 175.009 58.74C175.717 58.74 176.311 58.524 176.791 58.092C177.271 57.66 177.511 57.09 177.511 56.382C177.511 55.614 177.271 55.02 176.791 54.6C176.311 54.18 175.711 53.97 174.991 53.97C174.115 53.97 173.407 54.252 172.867 54.816C172.699 54.756 172.423 54.648 172.039 54.492C171.655 54.336 171.355 54.216 171.139 54.132L172.651 48.336H178.807V49.956H173.821L172.957 53.304C173.473 52.728 174.265 52.44 175.333 52.44C176.497 52.44 177.445 52.788 178.177 53.484C178.921 54.18 179.293 55.122 179.293 56.31C179.293 57.438 178.897 58.386 178.105 59.154C177.313 59.91 176.281 60.288 175.009 60.288C173.809 60.288 172.807 59.952 172.003 59.28C171.211 58.608 170.773 57.792 170.689 56.832ZM188.612 48.336V50.028C188.312 50.268 188.018 50.526 187.73 50.802C187.442 51.078 187.058 51.522 186.578 52.134C186.11 52.746 185.696 53.394 185.336 54.078C184.976 54.762 184.634 55.632 184.31 56.688C183.998 57.732 183.788 58.836 183.68 60H181.862C181.934 59.076 182.078 58.182 182.294 57.318C182.51 56.442 182.762 55.68 183.05 55.032C183.338 54.384 183.644 53.778 183.968 53.214C184.304 52.638 184.628 52.158 184.94 51.774C185.264 51.378 185.552 51.042 185.804 50.766C186.068 50.49 186.278 50.286 186.434 50.154L186.668 49.956H180.098V48.336H188.612ZM198.249 53.304C198.873 53.292 199.389 53.112 199.797 52.764C200.205 52.416 200.409 51.96 200.409 51.396C200.409 50.868 200.211 50.424 199.815 50.064C199.419 49.704 198.897 49.524 198.249 49.524C197.601 49.524 197.079 49.704 196.683 50.064C196.287 50.424 196.089 50.868 196.089 51.396C196.089 51.96 196.293 52.416 196.701 52.764C197.109 53.112 197.625 53.292 198.249 53.304ZM196.449 58.182C196.893 58.554 197.493 58.74 198.249 58.74C199.005 58.74 199.599 58.554 200.031 58.182C200.475 57.81 200.697 57.342 200.697 56.778C200.697 56.202 200.475 55.728 200.031 55.356C199.599 54.972 199.005 54.78 198.249 54.78C197.493 54.78 196.893 54.972 196.449 55.356C196.017 55.728 195.801 56.202 195.801 56.778C195.801 57.342 196.017 57.81 196.449 58.182ZM201.345 59.334C200.589 59.958 199.557 60.27 198.249 60.27C196.941 60.27 195.909 59.958 195.153 59.334C194.397 58.698 194.019 57.894 194.019 56.922C194.019 56.238 194.223 55.644 194.631 55.14C195.051 54.624 195.585 54.258 196.233 54.042C195.681 53.838 195.225 53.49 194.865 52.998C194.505 52.494 194.325 51.93 194.325 51.306C194.325 50.358 194.697 49.584 195.441 48.984C196.185 48.372 197.121 48.066 198.249 48.066C199.377 48.066 200.313 48.372 201.057 48.984C201.801 49.584 202.173 50.358 202.173 51.306C202.173 51.918 201.993 52.476 201.633 52.98C201.273 53.484 200.817 53.838 200.265 54.042C200.913 54.246 201.441 54.606 201.849 55.122C202.269 55.638 202.479 56.238 202.479 56.922C202.479 57.894 202.101 58.698 201.345 59.334ZM212.643 48.714L212.103 50.154C211.527 49.818 210.831 49.65 210.015 49.65C208.827 49.65 207.861 50.04 207.117 50.82C206.385 51.6 205.983 52.602 205.911 53.826C206.175 53.394 206.571 53.034 207.099 52.746C207.639 52.458 208.269 52.314 208.989 52.314C210.177 52.314 211.137 52.668 211.869 53.376C212.613 54.084 212.985 55.056 212.985 56.292C212.985 57.504 212.565 58.47 211.725 59.19C210.885 59.91 209.865 60.27 208.665 60.27C207.417 60.27 206.343 59.82 205.443 58.92C204.555 58.008 204.111 56.658 204.111 54.87C204.111 52.758 204.675 51.096 205.803 49.884C206.931 48.672 208.371 48.066 210.123 48.066C211.191 48.066 212.031 48.282 212.643 48.714ZM206.163 56.292C206.163 57.024 206.415 57.618 206.919 58.074C207.423 58.518 208.011 58.74 208.683 58.74C209.391 58.74 209.985 58.518 210.465 58.074C210.957 57.63 211.203 57.036 211.203 56.292C211.203 55.536 210.957 54.936 210.465 54.492C209.985 54.048 209.391 53.826 208.683 53.826C207.975 53.826 207.375 54.048 206.883 54.492C206.403 54.936 206.163 55.536 206.163 56.292ZM214.661 59.586L215.237 58.128C215.849 58.5 216.557 58.686 217.361 58.686C218.693 58.686 219.689 58.308 220.349 57.552C221.021 56.784 221.375 55.782 221.411 54.546C221.183 54.966 220.805 55.32 220.277 55.608C219.761 55.896 219.131 56.04 218.387 56.04C217.307 56.04 216.365 55.692 215.561 54.996C214.757 54.288 214.355 53.322 214.355 52.098C214.355 50.922 214.775 49.956 215.615 49.2C216.467 48.444 217.481 48.066 218.657 48.066C219.905 48.066 220.973 48.522 221.861 49.434C222.749 50.346 223.193 51.678 223.193 53.43C223.193 55.614 222.701 57.3 221.717 58.488C220.745 59.676 219.293 60.27 217.361 60.27C216.905 60.27 216.413 60.204 215.885 60.072C215.357 59.94 214.949 59.778 214.661 59.586ZM221.177 52.062C221.177 51.342 220.925 50.754 220.421 50.298C219.917 49.842 219.329 49.614 218.657 49.614C217.973 49.614 217.379 49.842 216.875 50.298C216.383 50.742 216.137 51.33 216.137 52.062C216.137 52.818 216.383 53.418 216.875 53.862C217.367 54.306 217.961 54.528 218.657 54.528C219.341 54.528 219.929 54.306 220.421 53.862C220.925 53.406 221.177 52.806 221.177 52.062ZM233.598 60H231.87V51.774H229.044V50.532C229.836 50.52 230.502 50.316 231.042 49.92C231.582 49.512 231.918 48.984 232.05 48.336H233.598V60ZM237.565 52.53L235.801 52.314C235.789 52.206 235.783 52.05 235.783 51.846C235.783 50.802 236.149 49.914 236.881 49.182C237.613 48.438 238.591 48.066 239.815 48.066C241.027 48.066 241.987 48.414 242.695 49.11C243.403 49.794 243.757 50.64 243.757 51.648C243.757 53.124 243.025 54.324 241.561 55.248L239.257 56.724C238.429 57.252 237.955 57.798 237.835 58.362H243.829V60H235.657C235.681 59.016 235.903 58.152 236.323 57.408C236.755 56.664 237.457 55.98 238.429 55.356L240.373 54.096C241.441 53.412 241.975 52.602 241.975 51.666C241.975 51.09 241.783 50.604 241.399 50.208C241.015 49.812 240.475 49.614 239.779 49.614C239.047 49.614 238.489 49.836 238.105 50.28C237.721 50.724 237.529 51.3 237.529 52.008C237.529 52.116 237.541 52.29 237.565 52.53ZM244.921 57.372V55.338L249.925 48.336H252.355V55.734H254.353V57.372H252.355V60H250.645V57.372H244.921ZM250.645 55.734V50.028L246.541 55.734H250.645Z" fill="#00142D"/>
<path d="M23.7469 27C13.0823 27.0151 4.9886 18.8244 5.00001 8.25314C5.00001 7.56278 5.55966 7 6.25001 7H9.54921C10.1687 7 10.6949 7.45516 10.7859 8.06791C11.0039 9.5365 11.4315 10.9662 12.0556 12.3134L12.1841 12.5906C12.3627 12.9761 12.2416 13.4342 11.8958 13.6811C10.8741 14.4107 10.4837 15.8794 11.2796 17.0254C12.2785 18.4635 13.5376 19.7224 14.9753 20.7208C16.1213 21.5165 17.5897 21.1261 18.3194 20.1046C18.5665 19.7586 19.0248 19.6375 19.4105 19.8162L19.6865 19.944C21.0337 20.5681 22.4636 20.9957 23.9323 21.2137C24.5451 21.3046 25 21.8308 25 22.4503V25.75C25 26.4403 24.439 27 23.7486 27L23.7469 27Z" fill="#707070"/>
<path d="M59.414 129H51.62V116.238H53.384V127.344H59.414V129ZM62.9753 129H61.3013V120.342H62.9753V129ZM61.2653 117.93C61.0373 117.69 60.9233 117.402 60.9233 117.066C60.9233 116.73 61.0373 116.442 61.2653 116.202C61.5053 115.962 61.7933 115.842 62.1293 115.842C62.4653 115.842 62.7533 115.962 62.9933 116.202C63.2333 116.43 63.3533 116.718 63.3533 117.066C63.3533 117.402 63.2333 117.69 62.9933 117.93C62.7533 118.158 62.4653 118.272 62.1293 118.272C61.7933 118.272 61.5053 118.158 61.2653 117.93ZM67.5281 129H65.8541V115.968H67.5281V121.566C67.7561 121.146 68.1161 120.798 68.6081 120.522C69.1121 120.234 69.7061 120.09 70.3901 120.09C71.6501 120.09 72.6281 120.516 73.3241 121.368C74.0201 122.22 74.3681 123.306 74.3681 124.626C74.3681 125.958 74.0081 127.062 73.2881 127.938C72.5681 128.802 71.5841 129.234 70.3361 129.234C69.0401 129.234 68.1041 128.736 67.5281 127.74V129ZM71.9381 126.876C72.4061 126.312 72.6401 125.562 72.6401 124.626C72.6401 123.69 72.4061 122.952 71.9381 122.412C71.4821 121.86 70.8641 121.584 70.0841 121.584C69.3281 121.584 68.7101 121.86 68.2301 122.412C67.7501 122.964 67.5101 123.702 67.5101 124.626C67.5101 125.55 67.7501 126.3 68.2301 126.876C68.7101 127.44 69.3281 127.722 70.0841 127.722C70.8521 127.722 71.4701 127.44 71.9381 126.876ZM77.622 123.78H82.356C82.332 123.132 82.116 122.604 81.708 122.196C81.3 121.776 80.724 121.566 79.98 121.566C79.308 121.566 78.756 121.788 78.324 122.232C77.892 122.664 77.658 123.18 77.622 123.78ZM82.608 126.03L84.066 126.534C83.814 127.338 83.346 127.998 82.662 128.514C81.978 129.018 81.15 129.27 80.178 129.27C78.966 129.27 77.934 128.856 77.082 128.028C76.242 127.188 75.822 126.06 75.822 124.644C75.822 123.324 76.23 122.232 77.046 121.368C77.862 120.504 78.834 120.072 79.962 120.072C81.27 120.072 82.29 120.486 83.022 121.314C83.754 122.13 84.12 123.228 84.12 124.608C84.12 124.824 84.108 125.004 84.084 125.148H77.568C77.58 125.916 77.832 126.546 78.324 127.038C78.828 127.53 79.446 127.776 80.178 127.776C81.414 127.776 82.224 127.194 82.608 126.03ZM91.0858 120.252V122.052C90.8338 122.016 90.5878 121.998 90.3478 121.998C88.7638 121.998 87.9718 122.886 87.9718 124.662V129H86.2798V120.342H87.9358V121.854C88.4638 120.75 89.3278 120.198 90.5278 120.198C90.7198 120.198 90.9058 120.216 91.0858 120.252ZM95.6143 117.606V120.342H97.4863V121.872H95.6143V126.372C95.6143 126.78 95.7043 127.08 95.8843 127.272C96.0763 127.464 96.3883 127.56 96.8203 127.56C97.0723 127.56 97.2943 127.536 97.4863 127.488V128.928C97.1983 129.036 96.8143 129.09 96.3343 129.09C95.5903 129.09 95.0023 128.874 94.5703 128.442C94.1383 128.01 93.9223 127.404 93.9223 126.624V121.872H92.2663V120.342H92.7343C93.1783 120.342 93.5083 120.222 93.7243 119.982C93.9523 119.73 94.0663 119.406 94.0663 119.01V117.606H95.6143ZM101.993 132.618H100.139L102.299 128.046L98.5726 120.342H100.517L103.217 126.318L105.809 120.342H107.627L101.993 132.618ZM115.734 129H113.934V116.238H115.734V129ZM117.989 126.75L119.519 126.21C119.579 126.678 119.783 127.068 120.131 127.38C120.479 127.68 120.947 127.83 121.535 127.83C121.991 127.83 122.351 127.722 122.615 127.506C122.879 127.278 123.011 127.002 123.011 126.678C123.011 126.102 122.639 125.73 121.895 125.562L120.419 125.238C119.747 125.094 119.219 124.806 118.835 124.374C118.451 123.942 118.259 123.42 118.259 122.808C118.259 122.064 118.559 121.422 119.159 120.882C119.771 120.342 120.497 120.072 121.337 120.072C121.889 120.072 122.381 120.156 122.813 120.324C123.245 120.48 123.581 120.69 123.821 120.954C124.061 121.218 124.241 121.464 124.361 121.692C124.481 121.92 124.571 122.154 124.631 122.394L123.137 122.952C123.113 122.808 123.071 122.67 123.011 122.538C122.951 122.394 122.855 122.238 122.723 122.07C122.603 121.902 122.423 121.77 122.183 121.674C121.943 121.566 121.661 121.512 121.337 121.512C120.917 121.512 120.569 121.626 120.293 121.854C120.029 122.082 119.897 122.352 119.897 122.664C119.897 123.216 120.227 123.564 120.887 123.708L122.291 124.014C123.059 124.182 123.647 124.494 124.055 124.95C124.475 125.394 124.685 125.94 124.685 126.588C124.685 127.272 124.403 127.89 123.839 128.442C123.287 128.994 122.513 129.27 121.517 129.27C120.449 129.27 119.615 129.006 119.015 128.478C118.415 127.938 118.073 127.362 117.989 126.75ZM128.63 129H126.938V115.968H128.63V129ZM130.968 126.678C130.968 125.934 131.208 125.34 131.688 124.896C132.168 124.44 132.804 124.158 133.596 124.05L135.936 123.708C136.38 123.648 136.602 123.432 136.602 123.06C136.602 122.604 136.446 122.232 136.134 121.944C135.822 121.656 135.354 121.512 134.73 121.512C134.154 121.512 133.698 121.674 133.362 121.998C133.026 122.31 132.828 122.73 132.768 123.258L131.148 122.88C131.232 122.052 131.61 121.38 132.282 120.864C132.954 120.336 133.758 120.072 134.694 120.072C135.918 120.072 136.824 120.372 137.412 120.972C138 121.56 138.294 122.316 138.294 123.24V127.578C138.294 128.094 138.33 128.568 138.402 129H136.746C136.686 128.64 136.656 128.25 136.656 127.83C136.416 128.214 136.062 128.55 135.594 128.838C135.138 129.126 134.562 129.27 133.866 129.27C133.014 129.27 132.318 129.018 131.778 128.514C131.238 127.998 130.968 127.386 130.968 126.678ZM134.1 127.848C134.856 127.848 135.462 127.644 135.918 127.236C136.374 126.828 136.602 126.18 136.602 125.292V124.896L133.956 125.292C133.572 125.352 133.266 125.49 133.038 125.706C132.81 125.922 132.696 126.216 132.696 126.588C132.696 126.924 132.822 127.218 133.074 127.47C133.338 127.722 133.68 127.848 134.1 127.848ZM142.622 123.996V129H140.93V120.342H142.586V121.584C143.162 120.588 144.05 120.09 145.25 120.09C146.246 120.09 147.008 120.408 147.536 121.044C148.076 121.68 148.346 122.502 148.346 123.51V129H146.654V123.798C146.654 122.346 145.982 121.62 144.638 121.62C144.002 121.62 143.504 121.848 143.144 122.304C142.796 122.748 142.622 123.312 142.622 123.996ZM152.046 124.644C152.046 125.556 152.268 126.3 152.712 126.876C153.168 127.452 153.792 127.74 154.584 127.74C155.34 127.74 155.946 127.446 156.402 126.858C156.858 126.27 157.086 125.52 157.086 124.608C157.086 123.708 156.864 122.982 156.42 122.43C155.976 121.878 155.37 121.602 154.602 121.602C153.834 121.602 153.216 121.884 152.748 122.448C152.28 123.012 152.046 123.744 152.046 124.644ZM157.104 127.83V127.686C156.876 128.13 156.528 128.502 156.06 128.802C155.604 129.09 155.058 129.234 154.422 129.234C153.186 129.234 152.19 128.802 151.434 127.938C150.69 127.062 150.318 125.964 150.318 124.644C150.318 123.384 150.702 122.316 151.47 121.44C152.238 120.552 153.222 120.108 154.422 120.108C155.13 120.108 155.706 120.252 156.15 120.54C156.594 120.816 156.9 121.158 157.068 121.566V115.968H158.742V127.398C158.742 127.986 158.772 128.52 158.832 129H157.194C157.134 128.664 157.104 128.274 157.104 127.83ZM161.44 127.848C161.44 127.524 161.566 127.242 161.818 127.002C162.07 126.762 162.382 126.642 162.754 126.642C163.162 126.642 163.504 126.792 163.78 127.092C164.068 127.392 164.212 127.812 164.212 128.352C164.212 129.432 163.936 130.266 163.384 130.854C162.832 131.442 162.22 131.778 161.548 131.862V130.926C161.98 130.83 162.334 130.59 162.61 130.206C162.886 129.834 163.03 129.426 163.042 128.982C162.958 129.042 162.826 129.072 162.646 129.072C162.298 129.072 162.01 128.964 161.782 128.748C161.554 128.52 161.44 128.22 161.44 127.848ZM182.085 129H180.249L173.355 118.596V129H171.591V116.238H173.949L180.321 126.03V116.238H182.085V129ZM186.237 123.78H190.971C190.947 123.132 190.731 122.604 190.323 122.196C189.915 121.776 189.339 121.566 188.595 121.566C187.923 121.566 187.371 121.788 186.939 122.232C186.507 122.664 186.273 123.18 186.237 123.78ZM191.223 126.03L192.681 126.534C192.429 127.338 191.961 127.998 191.277 128.514C190.593 129.018 189.765 129.27 188.793 129.27C187.581 129.27 186.549 128.856 185.697 128.028C184.857 127.188 184.437 126.06 184.437 124.644C184.437 123.324 184.845 122.232 185.661 121.368C186.477 120.504 187.449 120.072 188.577 120.072C189.885 120.072 190.905 120.486 191.637 121.314C192.369 122.13 192.735 123.228 192.735 124.608C192.735 124.824 192.723 125.004 192.699 125.148H186.183C186.195 125.916 186.447 126.546 186.939 127.038C187.443 127.53 188.061 127.776 188.793 127.776C190.029 127.776 190.839 127.194 191.223 126.03ZM199.685 120.342H201.431L203.681 126.858L205.589 120.342H207.371L204.563 129H202.817L200.513 122.412L198.263 129H196.481L193.637 120.342H195.491L197.435 126.858L199.685 120.342ZM216.821 123.546L212.321 116.238H214.445L217.757 121.926L221.069 116.238H223.085L218.585 123.546V129H216.821V123.546ZM224.872 126.948C225.4 127.488 226.042 127.758 226.798 127.758C227.554 127.758 228.19 127.488 228.706 126.948C229.234 126.396 229.498 125.634 229.498 124.662C229.498 123.702 229.234 122.952 228.706 122.412C228.19 121.86 227.554 121.584 226.798 121.584C226.042 121.584 225.4 121.86 224.872 122.412C224.356 122.952 224.098 123.702 224.098 124.662C224.098 125.634 224.356 126.396 224.872 126.948ZM223.612 121.386C224.452 120.51 225.514 120.072 226.798 120.072C228.082 120.072 229.138 120.51 229.966 121.386C230.806 122.25 231.226 123.342 231.226 124.662C231.226 125.994 230.812 127.098 229.984 127.974C229.156 128.838 228.094 129.27 226.798 129.27C225.502 129.27 224.44 128.838 223.612 127.974C222.784 127.098 222.37 125.994 222.37 124.662C222.37 123.342 222.784 122.25 223.612 121.386ZM238.197 120.252V122.052C237.945 122.016 237.699 121.998 237.459 121.998C235.875 121.998 235.083 122.886 235.083 124.662V129H233.391V120.342H235.047V121.854C235.575 120.75 236.439 120.198 237.639 120.198C237.831 120.198 238.017 120.216 238.197 120.252ZM247.759 120.342L244.069 123.996L247.831 129H245.707L242.881 125.184L241.675 126.39V129H240.001V115.968H241.675V124.176L245.419 120.342H247.759ZM249.278 127.848C249.278 127.524 249.404 127.242 249.656 127.002C249.908 126.762 250.22 126.642 250.592 126.642C251 126.642 251.342 126.792 251.618 127.092C251.906 127.392 252.05 127.812 252.05 128.352C252.05 129.432 251.774 130.266 251.222 130.854C250.67 131.442 250.058 131.778 249.386 131.862V130.926C249.818 130.83 250.172 130.59 250.448 130.206C250.724 129.834 250.868 129.426 250.88 128.982C250.796 129.042 250.664 129.072 250.484 129.072C250.136 129.072 249.848 128.964 249.62 128.748C249.392 128.52 249.278 128.22 249.278 127.848ZM269.923 129H268.087L261.193 118.596V129H259.429V116.238H261.787L268.159 126.03V116.238H269.923V129ZM276.217 123.546L271.717 116.238H273.841L277.153 121.926L280.465 116.238H282.481L277.981 123.546V129H276.217V123.546ZM55.004 168H53.276V159.774H50.45V158.532C51.242 158.52 51.908 158.316 52.448 157.92C52.988 157.512 53.324 156.984 53.456 156.336H55.004V168ZM60.1056 158.388C59.4216 159.108 59.0796 160.368 59.0796 162.168C59.0796 163.968 59.4216 165.228 60.1056 165.948C60.5856 166.452 61.2036 166.704 61.9596 166.704C62.7156 166.704 63.3336 166.452 63.8136 165.948C64.4976 165.228 64.8396 163.968 64.8396 162.168C64.8396 160.368 64.4976 159.108 63.8136 158.388C63.3336 157.884 62.7156 157.632 61.9596 157.632C61.2036 157.632 60.5856 157.884 60.1056 158.388ZM58.3776 166.398C57.6816 165.366 57.3336 163.956 57.3336 162.168C57.3336 160.38 57.6816 158.97 58.3776 157.938C59.2056 156.69 60.3996 156.066 61.9596 156.066C63.5196 156.066 64.7136 156.69 65.5416 157.938C66.2376 158.97 66.5856 160.38 66.5856 162.168C66.5856 163.956 66.2376 165.366 65.5416 166.398C64.7136 167.646 63.5196 168.27 61.9596 168.27C60.3996 168.27 59.2056 167.646 58.3776 166.398ZM71.0743 158.388C70.3903 159.108 70.0483 160.368 70.0483 162.168C70.0483 163.968 70.3903 165.228 71.0743 165.948C71.5543 166.452 72.1723 166.704 72.9283 166.704C73.6843 166.704 74.3023 166.452 74.7823 165.948C75.4663 165.228 75.8083 163.968 75.8083 162.168C75.8083 160.368 75.4663 159.108 74.7823 158.388C74.3023 157.884 73.6843 157.632 72.9283 157.632C72.1723 157.632 71.5543 157.884 71.0743 158.388ZM69.3463 166.398C68.6503 165.366 68.3023 163.956 68.3023 162.168C68.3023 160.38 68.6503 158.97 69.3463 157.938C70.1743 156.69 71.3683 156.066 72.9283 156.066C74.4883 156.066 75.6823 156.69 76.5103 157.938C77.2063 158.97 77.5543 160.38 77.5543 162.168C77.5543 163.956 77.2063 165.366 76.5103 166.398C75.6823 167.646 74.4883 168.27 72.9283 168.27C71.3683 168.27 70.1743 167.646 69.3463 166.398ZM82.0431 158.388C81.3591 159.108 81.0171 160.368 81.0171 162.168C81.0171 163.968 81.3591 165.228 82.0431 165.948C82.5231 166.452 83.1411 166.704 83.8971 166.704C84.6531 166.704 85.2711 166.452 85.7511 165.948C86.4351 165.228 86.7771 163.968 86.7771 162.168C86.7771 160.368 86.4351 159.108 85.7511 158.388C85.2711 157.884 84.6531 157.632 83.8971 157.632C83.1411 157.632 82.5231 157.884 82.0431 158.388ZM80.3151 166.398C79.6191 165.366 79.2711 163.956 79.2711 162.168C79.2711 160.38 79.6191 158.97 80.3151 157.938C81.1431 156.69 82.3371 156.066 83.8971 156.066C85.4571 156.066 86.6511 156.69 87.4791 157.938C88.1751 158.97 88.5231 160.38 88.5231 162.168C88.5231 163.956 88.1751 165.366 87.4791 166.398C86.6511 167.646 85.4571 168.27 83.8971 168.27C82.3371 168.27 81.1431 167.646 80.3151 166.398ZM90.0577 165.372V163.338L95.0617 156.336H97.4917V163.734H99.4897V165.372H97.4917V168H95.7817V165.372H90.0577ZM95.7817 163.734V158.028L91.6777 163.734H95.7817ZM101.024 166.848C101.024 166.524 101.15 166.242 101.402 166.002C101.654 165.762 101.966 165.642 102.338 165.642C102.746 165.642 103.088 165.792 103.364 166.092C103.652 166.392 103.796 166.812 103.796 167.352C103.796 168.432 103.52 169.266 102.968 169.854C102.416 170.442 101.804 170.778 101.132 170.862V169.926C101.564 169.83 101.918 169.59 102.194 169.206C102.47 168.834 102.614 168.426 102.626 167.982C102.542 168.042 102.41 168.072 102.23 168.072C101.882 168.072 101.594 167.964 101.366 167.748C101.138 167.52 101.024 167.22 101.024 166.848ZM118.879 167.046C118.027 167.862 116.929 168.27 115.585 168.27C114.241 168.27 113.137 167.862 112.273 167.046C111.421 166.23 110.995 165.096 110.995 163.644V155.238H112.741V163.59C112.741 164.562 112.987 165.312 113.479 165.84C113.983 166.368 114.685 166.632 115.585 166.632C116.485 166.632 117.181 166.368 117.673 165.84C118.165 165.312 118.411 164.562 118.411 163.59V155.238H120.175V163.644C120.175 165.096 119.743 166.23 118.879 167.046ZM124.657 162.996V168H122.965V159.342H124.621V160.584C125.197 159.588 126.085 159.09 127.285 159.09C128.281 159.09 129.043 159.408 129.571 160.044C130.111 160.68 130.381 161.502 130.381 162.51V168H128.689V162.798C128.689 161.346 128.017 160.62 126.673 160.62C126.037 160.62 125.539 160.848 125.179 161.304C124.831 161.748 124.657 162.312 124.657 162.996ZM134.747 168H133.073V159.342H134.747V168ZM133.037 156.93C132.809 156.69 132.695 156.402 132.695 156.066C132.695 155.73 132.809 155.442 133.037 155.202C133.277 154.962 133.565 154.842 133.901 154.842C134.237 154.842 134.525 154.962 134.765 155.202C135.005 155.43 135.125 155.718 135.125 156.066C135.125 156.402 135.005 156.69 134.765 156.93C134.525 157.158 134.237 157.272 133.901 157.272C133.565 157.272 133.277 157.158 133.037 156.93ZM139.894 156.606V159.342H141.766V160.872H139.894V165.372C139.894 165.78 139.984 166.08 140.164 166.272C140.356 166.464 140.668 166.56 141.1 166.56C141.352 166.56 141.574 166.536 141.766 166.488V167.928C141.478 168.036 141.094 168.09 140.614 168.09C139.87 168.09 139.282 167.874 138.85 167.442C138.418 167.01 138.202 166.404 138.202 165.624V160.872H136.546V159.342H137.014C137.458 159.342 137.788 159.222 138.004 158.982C138.232 158.73 138.346 158.406 138.346 158.01V156.606H139.894ZM145.034 162.78H149.768C149.744 162.132 149.528 161.604 149.12 161.196C148.712 160.776 148.136 160.566 147.392 160.566C146.72 160.566 146.168 160.788 145.736 161.232C145.304 161.664 145.07 162.18 145.034 162.78ZM150.02 165.03L151.478 165.534C151.226 166.338 150.758 166.998 150.074 167.514C149.39 168.018 148.562 168.27 147.59 168.27C146.378 168.27 145.346 167.856 144.494 167.028C143.654 166.188 143.234 165.06 143.234 163.644C143.234 162.324 143.642 161.232 144.458 160.368C145.274 159.504 146.246 159.072 147.374 159.072C148.682 159.072 149.702 159.486 150.434 160.314C151.166 161.13 151.532 162.228 151.532 163.608C151.532 163.824 151.52 164.004 151.496 164.148H144.98C144.992 164.916 145.244 165.546 145.736 166.038C146.24 166.53 146.858 166.776 147.59 166.776C148.826 166.776 149.636 166.194 150.02 165.03ZM154.7 163.644C154.7 164.556 154.922 165.3 155.366 165.876C155.822 166.452 156.446 166.74 157.238 166.74C157.994 166.74 158.6 166.446 159.056 165.858C159.512 165.27 159.74 164.52 159.74 163.608C159.74 162.708 159.518 161.982 159.074 161.43C158.63 160.878 158.024 160.602 157.256 160.602C156.488 160.602 155.87 160.884 155.402 161.448C154.934 162.012 154.7 162.744 154.7 163.644ZM159.758 166.83V166.686C159.53 167.13 159.182 167.502 158.714 167.802C158.258 168.09 157.712 168.234 157.076 168.234C155.84 168.234 154.844 167.802 154.088 166.938C153.344 166.062 152.972 164.964 152.972 163.644C152.972 162.384 153.356 161.316 154.124 160.44C154.892 159.552 155.876 159.108 157.076 159.108C157.784 159.108 158.36 159.252 158.804 159.54C159.248 159.816 159.554 160.158 159.722 160.566V154.968H161.396V166.398C161.396 166.986 161.426 167.52 161.486 168H159.848C159.788 167.664 159.758 167.274 159.758 166.83ZM177.09 158.136L175.506 158.694C175.422 158.142 175.152 157.644 174.696 157.2C174.24 156.744 173.61 156.516 172.806 156.516C172.098 156.516 171.51 156.72 171.042 157.128C170.574 157.536 170.34 158.04 170.34 158.64C170.34 159.108 170.478 159.504 170.754 159.828C171.042 160.152 171.45 160.374 171.978 160.494L173.886 160.908C174.942 161.136 175.758 161.568 176.334 162.204C176.91 162.828 177.198 163.59 177.198 164.49C177.198 165.522 176.79 166.41 175.974 167.154C175.158 167.898 174.096 168.27 172.788 168.27C171.36 168.27 170.238 167.898 169.422 167.154C168.618 166.398 168.15 165.504 168.018 164.472L169.71 163.932C169.782 164.7 170.082 165.348 170.61 165.876C171.138 166.404 171.858 166.668 172.77 166.668C173.61 166.668 174.258 166.476 174.714 166.092C175.17 165.708 175.398 165.222 175.398 164.634C175.398 164.154 175.236 163.74 174.912 163.392C174.588 163.032 174.114 162.786 173.49 162.654L171.672 162.258C170.724 162.054 169.968 161.652 169.404 161.052C168.84 160.452 168.558 159.69 168.558 158.766C168.558 157.758 168.966 156.876 169.782 156.12C170.61 155.352 171.606 154.968 172.77 154.968C174.078 154.968 175.08 155.286 175.776 155.922C176.472 156.558 176.91 157.296 177.09 158.136ZM181.536 156.606V159.342H183.408V160.872H181.536V165.372C181.536 165.78 181.626 166.08 181.806 166.272C181.998 166.464 182.31 166.56 182.742 166.56C182.994 166.56 183.216 166.536 183.408 166.488V167.928C183.12 168.036 182.736 168.09 182.256 168.09C181.512 168.09 180.924 167.874 180.492 167.442C180.06 167.01 179.844 166.404 179.844 165.624V160.872H178.188V159.342H178.656C179.1 159.342 179.43 159.222 179.646 158.982C179.874 158.73 179.988 158.406 179.988 158.01V156.606H181.536ZM185.127 165.678C185.127 164.934 185.367 164.34 185.847 163.896C186.327 163.44 186.963 163.158 187.755 163.05L190.095 162.708C190.539 162.648 190.761 162.432 190.761 162.06C190.761 161.604 190.605 161.232 190.293 160.944C189.981 160.656 189.513 160.512 188.889 160.512C188.313 160.512 187.857 160.674 187.521 160.998C187.185 161.31 186.987 161.73 186.927 162.258L185.307 161.88C185.391 161.052 185.769 160.38 186.441 159.864C187.113 159.336 187.917 159.072 188.853 159.072C190.077 159.072 190.983 159.372 191.571 159.972C192.159 160.56 192.453 161.316 192.453 162.24V166.578C192.453 167.094 192.489 167.568 192.561 168H190.905C190.845 167.64 190.815 167.25 190.815 166.83C190.575 167.214 190.221 167.55 189.753 167.838C189.297 168.126 188.721 168.27 188.025 168.27C187.173 168.27 186.477 168.018 185.937 167.514C185.397 166.998 185.127 166.386 185.127 165.678ZM188.259 166.848C189.015 166.848 189.621 166.644 190.077 166.236C190.533 165.828 190.761 165.18 190.761 164.292V163.896L188.115 164.292C187.731 164.352 187.425 164.49 187.197 164.706C186.969 164.922 186.855 165.216 186.855 165.588C186.855 165.924 186.981 166.218 187.233 166.47C187.497 166.722 187.839 166.848 188.259 166.848ZM197.356 156.606V159.342H199.228V160.872H197.356V165.372C197.356 165.78 197.446 166.08 197.626 166.272C197.818 166.464 198.13 166.56 198.562 166.56C198.814 166.56 199.036 166.536 199.228 166.488V167.928C198.94 168.036 198.556 168.09 198.076 168.09C197.332 168.09 196.744 167.874 196.312 167.442C195.88 167.01 195.664 166.404 195.664 165.624V160.872H194.008V159.342H194.476C194.92 159.342 195.25 159.222 195.466 158.982C195.694 158.73 195.808 158.406 195.808 158.01V156.606H197.356ZM202.497 162.78H207.231C207.207 162.132 206.991 161.604 206.583 161.196C206.175 160.776 205.599 160.566 204.855 160.566C204.183 160.566 203.631 160.788 203.199 161.232C202.767 161.664 202.533 162.18 202.497 162.78ZM207.483 165.03L208.941 165.534C208.689 166.338 208.221 166.998 207.537 167.514C206.853 168.018 206.025 168.27 205.053 168.27C203.841 168.27 202.809 167.856 201.957 167.028C201.117 166.188 200.697 165.06 200.697 163.644C200.697 162.324 201.105 161.232 201.921 160.368C202.737 159.504 203.709 159.072 204.837 159.072C206.145 159.072 207.165 159.486 207.897 160.314C208.629 161.13 208.995 162.228 208.995 163.608C208.995 163.824 208.983 164.004 208.959 164.148H202.443C202.455 164.916 202.707 165.546 203.199 166.038C203.703 166.53 204.321 166.776 205.053 166.776C206.289 166.776 207.099 166.194 207.483 165.03ZM210.345 165.75L211.875 165.21C211.935 165.678 212.139 166.068 212.487 166.38C212.835 166.68 213.303 166.83 213.891 166.83C214.347 166.83 214.707 166.722 214.971 166.506C215.235 166.278 215.367 166.002 215.367 165.678C215.367 165.102 214.995 164.73 214.251 164.562L212.775 164.238C212.103 164.094 211.575 163.806 211.191 163.374C210.807 162.942 210.615 162.42 210.615 161.808C210.615 161.064 210.915 160.422 211.515 159.882C212.127 159.342 212.853 159.072 213.693 159.072C214.245 159.072 214.737 159.156 215.169 159.324C215.601 159.48 215.937 159.69 216.177 159.954C216.417 160.218 216.597 160.464 216.717 160.692C216.837 160.92 216.927 161.154 216.987 161.394L215.493 161.952C215.469 161.808 215.427 161.67 215.367 161.538C215.307 161.394 215.211 161.238 215.079 161.07C214.959 160.902 214.779 160.77 214.539 160.674C214.299 160.566 214.017 160.512 213.693 160.512C213.273 160.512 212.925 160.626 212.649 160.854C212.385 161.082 212.253 161.352 212.253 161.664C212.253 162.216 212.583 162.564 213.243 162.708L214.647 163.014C215.415 163.182 216.003 163.494 216.411 163.95C216.831 164.394 217.041 164.94 217.041 165.588C217.041 166.272 216.759 166.89 216.195 167.442C215.643 167.994 214.869 168.27 213.873 168.27C212.805 168.27 211.971 168.006 211.371 167.478C210.771 166.938 210.429 166.362 210.345 165.75Z" fill="#00142D"/>
<path d="M15 136.25C13.4212 134.903 11.9577 133.427 10.625 131.836C8.625 129.448 6.25 125.89 6.25 122.5C6.24823 118.959 8.38031 115.767 11.6513 114.412C14.9224 113.057 18.6876 113.807 21.19 116.311C22.8356 117.95 23.7574 120.178 23.75 122.5C23.75 125.89 21.375 129.448 19.375 131.836C18.0423 133.427 16.5788 134.903 15 136.25ZM15 118.75C13.6603 118.75 12.4223 119.465 11.7524 120.625C11.0825 121.785 11.0825 123.215 11.7524 124.375C12.4223 125.535 13.6603 126.25 15 126.25C17.0711 126.25 18.75 124.571 18.75 122.5C18.75 120.429 17.0711 118.75 15 118.75Z" fill="#707070"/>
<path d="M55.076 229.638C54.344 229.638 53.72 229.902 53.204 230.43C52.7 230.958 52.448 231.702 52.448 232.662C52.448 233.61 52.7 234.354 53.204 234.894C53.72 235.434 54.35 235.704 55.094 235.704C55.814 235.704 56.36 235.524 56.732 235.164C57.116 234.804 57.374 234.39 57.506 233.922L59 234.57C58.76 235.29 58.304 235.92 57.632 236.46C56.972 237 56.126 237.27 55.094 237.27C53.834 237.27 52.79 236.832 51.962 235.956C51.134 235.08 50.72 233.982 50.72 232.662C50.72 231.318 51.134 230.22 51.962 229.368C52.79 228.504 53.828 228.072 55.076 228.072C56.132 228.072 56.984 228.342 57.632 228.882C58.292 229.422 58.724 230.07 58.928 230.826L57.398 231.474C57.266 230.97 57.014 230.538 56.642 230.178C56.27 229.818 55.748 229.638 55.076 229.638ZM62.679 234.948C63.207 235.488 63.849 235.758 64.605 235.758C65.361 235.758 65.997 235.488 66.513 234.948C67.041 234.396 67.305 233.634 67.305 232.662C67.305 231.702 67.041 230.952 66.513 230.412C65.997 229.86 65.361 229.584 64.605 229.584C63.849 229.584 63.207 229.86 62.679 230.412C62.163 230.952 61.905 231.702 61.905 232.662C61.905 233.634 62.163 234.396 62.679 234.948ZM61.419 229.386C62.259 228.51 63.321 228.072 64.605 228.072C65.889 228.072 66.945 228.51 67.773 229.386C68.613 230.25 69.033 231.342 69.033 232.662C69.033 233.994 68.619 235.098 67.791 235.974C66.963 236.838 65.901 237.27 64.605 237.27C63.309 237.27 62.247 236.838 61.419 235.974C60.591 235.098 60.177 233.994 60.177 232.662C60.177 231.342 60.591 230.25 61.419 229.386ZM72.8898 231.996V237H71.1978V228.342H72.8538V229.584C73.4298 228.588 74.3178 228.09 75.5178 228.09C76.5138 228.09 77.2758 228.408 77.8038 229.044C78.3438 229.68 78.6138 230.502 78.6138 231.51V237H76.9218V231.798C76.9218 230.346 76.2498 229.62 74.9058 229.62C74.2698 229.62 73.7718 229.848 73.4118 230.304C73.0638 230.748 72.8898 231.312 72.8898 231.996ZM83.5732 225.606V228.342H85.4452V229.872H83.5732V234.372C83.5732 234.78 83.6632 235.08 83.8432 235.272C84.0352 235.464 84.3472 235.56 84.7792 235.56C85.0312 235.56 85.2532 235.536 85.4452 235.488V236.928C85.1572 237.036 84.7732 237.09 84.2932 237.09C83.5492 237.09 82.9612 236.874 82.5292 236.442C82.0972 236.01 81.8812 235.404 81.8812 234.624V229.872H80.2252V228.342H80.6932C81.1372 228.342 81.4672 228.222 81.6832 227.982C81.9112 227.73 82.0252 227.406 82.0252 227.01V225.606H83.5732ZM87.1637 234.678C87.1637 233.934 87.4037 233.34 87.8837 232.896C88.3637 232.44 88.9997 232.158 89.7917 232.05L92.1317 231.708C92.5757 231.648 92.7977 231.432 92.7977 231.06C92.7977 230.604 92.6417 230.232 92.3297 229.944C92.0177 229.656 91.5497 229.512 90.9257 229.512C90.3497 229.512 89.8937 229.674 89.5577 229.998C89.2217 230.31 89.0237 230.73 88.9637 231.258L87.3437 230.88C87.4277 230.052 87.8057 229.38 88.4777 228.864C89.1497 228.336 89.9537 228.072 90.8897 228.072C92.1137 228.072 93.0197 228.372 93.6077 228.972C94.1957 229.56 94.4897 230.316 94.4897 231.24V235.578C94.4897 236.094 94.5257 236.568 94.5977 237H92.9417C92.8817 236.64 92.8517 236.25 92.8517 235.83C92.6117 236.214 92.2577 236.55 91.7897 236.838C91.3337 237.126 90.7577 237.27 90.0617 237.27C89.2097 237.27 88.5137 237.018 87.9737 236.514C87.4337 235.998 87.1637 235.386 87.1637 234.678ZM90.2957 235.848C91.0517 235.848 91.6577 235.644 92.1137 235.236C92.5697 234.828 92.7977 234.18 92.7977 233.292V232.896L90.1517 233.292C89.7677 233.352 89.4617 233.49 89.2337 233.706C89.0057 233.922 88.8917 234.216 88.8917 234.588C88.8917 234.924 89.0177 235.218 89.2697 235.47C89.5337 235.722 89.8757 235.848 90.2957 235.848ZM100.762 229.638C100.03 229.638 99.4055 229.902 98.8895 230.43C98.3855 230.958 98.1335 231.702 98.1335 232.662C98.1335 233.61 98.3855 234.354 98.8895 234.894C99.4055 235.434 100.036 235.704 100.78 235.704C101.5 235.704 102.046 235.524 102.418 235.164C102.802 234.804 103.06 234.39 103.192 233.922L104.686 234.57C104.446 235.29 103.99 235.92 103.318 236.46C102.658 237 101.812 237.27 100.78 237.27C99.5195 237.27 98.4755 236.832 97.6475 235.956C96.8195 235.08 96.4055 233.982 96.4055 232.662C96.4055 231.318 96.8195 230.22 97.6475 229.368C98.4755 228.504 99.5135 228.072 100.762 228.072C101.818 228.072 102.67 228.342 103.318 228.882C103.978 229.422 104.41 230.07 104.614 230.826L103.084 231.474C102.952 230.97 102.7 230.538 102.328 230.178C101.956 229.818 101.434 229.638 100.762 229.638ZM108.938 225.606V228.342H110.81V229.872H108.938V234.372C108.938 234.78 109.028 235.08 109.208 235.272C109.4 235.464 109.712 235.56 110.144 235.56C110.396 235.56 110.618 235.536 110.81 235.488V236.928C110.522 237.036 110.138 237.09 109.658 237.09C108.914 237.09 108.326 236.874 107.894 236.442C107.462 236.01 107.246 235.404 107.246 234.624V229.872H105.59V228.342H106.058C106.502 228.342 106.832 228.222 107.048 227.982C107.276 227.73 107.39 227.406 107.39 227.01V225.606H108.938ZM122.447 234.534C122.003 234.534 121.619 234.438 121.295 234.246C120.971 234.054 120.761 233.766 120.665 233.382C120.113 234.174 119.399 234.57 118.523 234.57C117.707 234.57 117.041 234.288 116.525 233.724C116.021 233.16 115.769 232.416 115.769 231.492C115.769 230.304 116.123 229.308 116.831 228.504C117.539 227.7 118.385 227.298 119.369 227.298C119.789 227.298 120.179 227.4 120.539 227.604C120.911 227.808 121.163 228.102 121.295 228.486L121.457 227.532H122.879L121.907 232.05C121.871 232.23 121.853 232.398 121.853 232.554C121.853 233.046 122.081 233.292 122.537 233.292C123.041 233.292 123.491 232.95 123.887 232.266C124.283 231.57 124.481 230.772 124.481 229.872C124.481 228.54 124.013 227.442 123.077 226.578C122.153 225.714 120.941 225.282 119.441 225.282C117.845 225.282 116.525 225.816 115.481 226.884C114.437 227.94 113.915 229.32 113.915 231.024C113.915 232.632 114.425 233.952 115.445 234.984C116.477 236.016 117.875 236.532 119.639 236.532C121.043 236.532 122.273 236.112 123.329 235.272L124.067 236.244C123.551 236.724 122.879 237.108 122.051 237.396C121.235 237.696 120.431 237.846 119.639 237.846C117.527 237.846 115.799 237.216 114.455 235.956C113.111 234.684 112.439 233.034 112.439 231.006C112.439 228.954 113.117 227.268 114.473 225.948C115.829 224.628 117.479 223.968 119.423 223.968C121.259 223.968 122.789 224.532 124.013 225.66C125.249 226.776 125.867 228.174 125.867 229.854C125.867 231.186 125.531 232.302 124.859 233.202C124.199 234.09 123.395 234.534 122.447 234.534ZM120.899 230.34C120.899 229.8 120.767 229.386 120.503 229.098C120.239 228.798 119.867 228.648 119.387 228.648C118.763 228.648 118.247 228.918 117.839 229.458C117.443 229.986 117.245 230.598 117.245 231.294C117.245 232.602 117.755 233.256 118.775 233.256C119.387 233.256 119.885 232.986 120.269 232.446C120.665 231.894 120.875 231.192 120.899 230.34ZM129.632 237H127.94V223.968H129.632V237ZM133.608 231.78H138.342C138.318 231.132 138.102 230.604 137.694 230.196C137.286 229.776 136.71 229.566 135.966 229.566C135.294 229.566 134.742 229.788 134.31 230.232C133.878 230.664 133.644 231.18 133.608 231.78ZM138.594 234.03L140.052 234.534C139.8 235.338 139.332 235.998 138.648 236.514C137.964 237.018 137.136 237.27 136.164 237.27C134.952 237.27 133.92 236.856 133.068 236.028C132.228 235.188 131.808 234.06 131.808 232.644C131.808 231.324 132.216 230.232 133.032 229.368C133.848 228.504 134.82 228.072 135.948 228.072C137.256 228.072 138.276 228.486 139.008 229.314C139.74 230.13 140.106 231.228 140.106 232.608C140.106 232.824 140.094 233.004 140.07 233.148H133.554C133.566 233.916 133.818 234.546 134.31 235.038C134.814 235.53 135.432 235.776 136.164 235.776C137.4 235.776 138.21 235.194 138.594 234.03ZM141.636 237.468L143.274 237.09C143.334 237.702 143.58 238.206 144.012 238.602C144.444 239.01 144.984 239.214 145.632 239.214C147.396 239.214 148.278 238.278 148.278 236.406V235.164C148.062 235.584 147.72 235.926 147.252 236.19C146.796 236.454 146.256 236.586 145.632 236.586C144.48 236.586 143.526 236.196 142.77 235.416C142.026 234.624 141.654 233.616 141.654 232.392C141.654 231.204 142.026 230.208 142.77 229.404C143.514 228.588 144.468 228.18 145.632 228.18C146.952 228.18 147.84 228.636 148.296 229.548V228.342H149.97V236.352C149.97 236.928 149.892 237.462 149.736 237.954C149.592 238.458 149.358 238.92 149.034 239.34C148.71 239.76 148.254 240.09 147.666 240.33C147.09 240.57 146.412 240.69 145.632 240.69C144.564 240.69 143.658 240.384 142.914 239.772C142.17 239.172 141.744 238.404 141.636 237.468ZM145.884 235.164C146.616 235.164 147.21 234.912 147.666 234.408C148.122 233.892 148.35 233.22 148.35 232.392C148.35 231.564 148.122 230.898 147.666 230.394C147.21 229.878 146.616 229.62 145.884 229.62C145.14 229.62 144.534 229.872 144.066 230.376C143.61 230.88 143.382 231.552 143.382 232.392C143.382 233.244 143.604 233.922 144.048 234.426C144.504 234.918 145.116 235.164 145.884 235.164ZM153.77 231.78H158.504C158.48 231.132 158.264 230.604 157.856 230.196C157.448 229.776 156.872 229.566 156.128 229.566C155.456 229.566 154.904 229.788 154.472 230.232C154.04 230.664 153.806 231.18 153.77 231.78ZM158.756 234.03L160.214 234.534C159.962 235.338 159.494 235.998 158.81 236.514C158.126 237.018 157.298 237.27 156.326 237.27C155.114 237.27 154.082 236.856 153.23 236.028C152.39 235.188 151.97 234.06 151.97 232.644C151.97 231.324 152.378 230.232 153.194 229.368C154.01 228.504 154.982 228.072 156.11 228.072C157.418 228.072 158.438 228.486 159.17 229.314C159.902 230.13 160.268 231.228 160.268 232.608C160.268 232.824 160.256 233.004 160.232 233.148H153.716C153.728 233.916 153.98 234.546 154.472 235.038C154.976 235.53 155.594 235.776 156.326 235.776C157.562 235.776 158.372 235.194 158.756 234.03ZM164.12 231.996V237H162.428V228.342H164.084V229.584C164.66 228.588 165.548 228.09 166.748 228.09C167.744 228.09 168.506 228.408 169.034 229.044C169.574 229.68 169.844 230.502 169.844 231.51V237H168.152V231.798C168.152 230.346 167.48 229.62 166.136 229.62C165.5 229.62 165.002 229.848 164.642 230.304C164.294 230.748 164.12 231.312 164.12 231.996ZM173.544 232.644C173.544 233.556 173.766 234.3 174.21 234.876C174.666 235.452 175.29 235.74 176.082 235.74C176.838 235.74 177.444 235.446 177.9 234.858C178.356 234.27 178.584 233.52 178.584 232.608C178.584 231.708 178.362 230.982 177.918 230.43C177.474 229.878 176.868 229.602 176.1 229.602C175.332 229.602 174.714 229.884 174.246 230.448C173.778 231.012 173.544 231.744 173.544 232.644ZM178.602 235.83V235.686C178.374 236.13 178.026 236.502 177.558 236.802C177.102 237.09 176.556 237.234 175.92 237.234C174.684 237.234 173.688 236.802 172.932 235.938C172.188 235.062 171.816 233.964 171.816 232.644C171.816 231.384 172.2 230.316 172.968 229.44C173.736 228.552 174.72 228.108 175.92 228.108C176.628 228.108 177.204 228.252 177.648 228.54C178.092 228.816 178.398 229.158 178.566 229.566V223.968H180.24V235.398C180.24 235.986 180.27 236.52 180.33 237H178.692C178.632 236.664 178.602 236.274 178.602 235.83ZM182.578 234.678C182.578 233.934 182.818 233.34 183.298 232.896C183.778 232.44 184.414 232.158 185.206 232.05L187.546 231.708C187.99 231.648 188.212 231.432 188.212 231.06C188.212 230.604 188.056 230.232 187.744 229.944C187.432 229.656 186.964 229.512 186.34 229.512C185.764 229.512 185.308 229.674 184.972 229.998C184.636 230.31 184.438 230.73 184.378 231.258L182.758 230.88C182.842 230.052 183.22 229.38 183.892 228.864C184.564 228.336 185.368 228.072 186.304 228.072C187.528 228.072 188.434 228.372 189.022 228.972C189.61 229.56 189.904 230.316 189.904 231.24V235.578C189.904 236.094 189.94 236.568 190.012 237H188.356C188.296 236.64 188.266 236.25 188.266 235.83C188.026 236.214 187.672 236.55 187.204 236.838C186.748 237.126 186.172 237.27 185.476 237.27C184.624 237.27 183.928 237.018 183.388 236.514C182.848 235.998 182.578 235.386 182.578 234.678ZM185.71 235.848C186.466 235.848 187.072 235.644 187.528 235.236C187.984 234.828 188.212 234.18 188.212 233.292V232.896L185.566 233.292C185.182 233.352 184.876 233.49 184.648 233.706C184.42 233.922 184.306 234.216 184.306 234.588C184.306 234.924 184.432 235.218 184.684 235.47C184.948 235.722 185.29 235.848 185.71 235.848ZM197.346 228.252V230.052C197.094 230.016 196.848 229.998 196.608 229.998C195.024 229.998 194.232 230.886 194.232 232.662V237H192.54V228.342H194.196V229.854C194.724 228.75 195.588 228.198 196.788 228.198C196.98 228.198 197.166 228.216 197.346 228.252ZM201.573 240.618H199.719L201.879 236.046L198.153 228.342H200.097L202.797 234.318L205.389 228.342H207.207L201.573 240.618ZM212.119 229.638C211.387 229.638 210.763 229.902 210.247 230.43C209.743 230.958 209.491 231.702 209.491 232.662C209.491 233.61 209.743 234.354 210.247 234.894C210.763 235.434 211.393 235.704 212.137 235.704C212.857 235.704 213.403 235.524 213.775 235.164C214.159 234.804 214.417 234.39 214.549 233.922L216.043 234.57C215.803 235.29 215.347 235.92 214.675 236.46C214.015 237 213.169 237.27 212.137 237.27C210.877 237.27 209.833 236.832 209.005 235.956C208.177 235.08 207.763 233.982 207.763 232.662C207.763 231.318 208.177 230.22 209.005 229.368C209.833 228.504 210.871 228.072 212.119 228.072C213.175 228.072 214.027 228.342 214.675 228.882C215.335 229.422 215.767 230.07 215.971 230.826L214.441 231.474C214.309 230.97 214.057 230.538 213.685 230.178C213.313 229.818 212.791 229.638 212.119 229.638ZM219.72 231.906V237H218.028V223.968H219.72V229.35C220.296 228.51 221.172 228.09 222.348 228.09C223.344 228.09 224.106 228.408 224.634 229.044C225.174 229.68 225.444 230.502 225.444 231.51V237H223.752V231.798C223.752 230.346 223.08 229.62 221.736 229.62C221.112 229.62 220.626 229.836 220.278 230.268C219.93 230.688 219.744 231.234 219.72 231.906ZM229.809 237H228.135V228.342H229.809V237ZM228.099 225.93C227.871 225.69 227.757 225.402 227.757 225.066C227.757 224.73 227.871 224.442 228.099 224.202C228.339 223.962 228.627 223.842 228.963 223.842C229.299 223.842 229.587 223.962 229.827 224.202C230.067 224.43 230.187 224.718 230.187 225.066C230.187 225.402 230.067 225.69 229.827 225.93C229.587 226.158 229.299 226.272 228.963 226.272C228.627 226.272 228.339 226.158 228.099 225.93ZM237.494 228.252V230.052C237.242 230.016 236.996 229.998 236.756 229.998C235.172 229.998 234.38 230.886 234.38 232.662V237H232.688V228.342H234.344V229.854C234.872 228.75 235.736 228.198 236.936 228.198C237.128 228.198 237.314 228.216 237.494 228.252ZM240.992 234.948C241.52 235.488 242.162 235.758 242.918 235.758C243.674 235.758 244.31 235.488 244.826 234.948C245.354 234.396 245.618 233.634 245.618 232.662C245.618 231.702 245.354 230.952 244.826 230.412C244.31 229.86 243.674 229.584 242.918 229.584C242.162 229.584 241.52 229.86 240.992 230.412C240.476 230.952 240.218 231.702 240.218 232.662C240.218 233.634 240.476 234.396 240.992 234.948ZM239.732 229.386C240.572 228.51 241.634 228.072 242.918 228.072C244.202 228.072 245.258 228.51 246.086 229.386C246.926 230.25 247.346 231.342 247.346 232.662C247.346 233.994 246.932 235.098 246.104 235.974C245.276 236.838 244.214 237.27 242.918 237.27C241.622 237.27 240.56 236.838 239.732 235.974C238.904 235.098 238.49 233.994 238.49 232.662C238.49 231.342 238.904 230.25 239.732 229.386ZM251.184 240.42H249.51V228.342H251.148V229.692C251.4 229.236 251.778 228.864 252.282 228.576C252.786 228.288 253.374 228.144 254.046 228.144C255.294 228.144 256.266 228.57 256.962 229.422C257.67 230.274 258.024 231.354 258.024 232.662C258.024 233.982 257.658 235.074 256.926 235.938C256.206 236.802 255.228 237.234 253.992 237.234C253.356 237.234 252.792 237.102 252.3 236.838C251.808 236.574 251.436 236.238 251.184 235.83V240.42ZM256.296 232.662C256.296 231.786 256.062 231.066 255.594 230.502C255.138 229.926 254.52 229.638 253.74 229.638C252.972 229.638 252.348 229.926 251.868 230.502C251.4 231.066 251.166 231.786 251.166 232.662C251.166 233.562 251.4 234.3 251.868 234.876C252.348 235.44 252.972 235.722 253.74 235.722C254.508 235.722 255.126 235.44 255.594 234.876C256.062 234.3 256.296 233.562 256.296 232.662ZM264.986 228.252V230.052C264.734 230.016 264.488 229.998 264.248 229.998C262.664 229.998 261.872 230.886 261.872 232.662V237H260.18V228.342H261.836V229.854C262.364 228.75 263.228 228.198 264.428 228.198C264.62 228.198 264.806 228.216 264.986 228.252ZM266.25 234.678C266.25 233.934 266.49 233.34 266.97 232.896C267.45 232.44 268.086 232.158 268.878 232.05L271.218 231.708C271.662 231.648 271.884 231.432 271.884 231.06C271.884 230.604 271.728 230.232 271.416 229.944C271.104 229.656 270.636 229.512 270.012 229.512C269.436 229.512 268.98 229.674 268.644 229.998C268.308 230.31 268.11 230.73 268.05 231.258L266.43 230.88C266.514 230.052 266.892 229.38 267.564 228.864C268.236 228.336 269.04 228.072 269.976 228.072C271.2 228.072 272.106 228.372 272.694 228.972C273.282 229.56 273.576 230.316 273.576 231.24V235.578C273.576 236.094 273.612 236.568 273.684 237H272.028C271.968 236.64 271.938 236.25 271.938 235.83C271.698 236.214 271.344 236.55 270.876 236.838C270.42 237.126 269.844 237.27 269.148 237.27C268.296 237.27 267.6 237.018 267.06 236.514C266.52 235.998 266.25 235.386 266.25 234.678ZM269.382 235.848C270.138 235.848 270.744 235.644 271.2 235.236C271.656 234.828 271.884 234.18 271.884 233.292V232.896L269.238 233.292C268.854 233.352 268.548 233.49 268.32 233.706C268.092 233.922 267.978 234.216 267.978 234.588C267.978 234.924 268.104 235.218 268.356 235.47C268.62 235.722 268.962 235.848 269.382 235.848ZM279.847 229.638C279.115 229.638 278.491 229.902 277.975 230.43C277.471 230.958 277.219 231.702 277.219 232.662C277.219 233.61 277.471 234.354 277.975 234.894C278.491 235.434 279.121 235.704 279.865 235.704C280.585 235.704 281.131 235.524 281.503 235.164C281.887 234.804 282.145 234.39 282.277 233.922L283.771 234.57C283.531 235.29 283.075 235.92 282.403 236.46C281.743 237 280.897 237.27 279.865 237.27C278.605 237.27 277.561 236.832 276.733 235.956C275.905 235.08 275.491 233.982 275.491 232.662C275.491 231.318 275.905 230.22 276.733 229.368C277.561 228.504 278.599 228.072 279.847 228.072C280.903 228.072 281.755 228.342 282.403 228.882C283.063 229.422 283.495 230.07 283.699 230.826L282.169 231.474C282.037 230.97 281.785 230.538 281.413 230.178C281.041 229.818 280.519 229.638 279.847 229.638ZM288.024 225.606V228.342H289.896V229.872H288.024V234.372C288.024 234.78 288.114 235.08 288.294 235.272C288.486 235.464 288.798 235.56 289.23 235.56C289.482 235.56 289.704 235.536 289.896 235.488V236.928C289.608 237.036 289.224 237.09 288.744 237.09C288 237.09 287.412 236.874 286.98 236.442C286.548 236.01 286.332 235.404 286.332 234.624V229.872H284.676V228.342H285.144C285.588 228.342 285.918 228.222 286.134 227.982C286.362 227.73 286.476 227.406 286.476 227.01V225.606H288.024ZM293.849 234.948C294.377 235.488 295.019 235.758 295.775 235.758C296.531 235.758 297.167 235.488 297.683 234.948C298.211 234.396 298.475 233.634 298.475 232.662C298.475 231.702 298.211 230.952 297.683 230.412C297.167 229.86 296.531 229.584 295.775 229.584C295.019 229.584 294.377 229.86 293.849 230.412C293.333 230.952 293.075 231.702 293.075 232.662C293.075 233.634 293.333 234.396 293.849 234.948ZM292.589 229.386C293.429 228.51 294.491 228.072 295.775 228.072C297.059 228.072 298.115 228.51 298.943 229.386C299.783 230.25 300.203 231.342 300.203 232.662C300.203 233.994 299.789 235.098 298.961 235.974C298.133 236.838 297.071 237.27 295.775 237.27C294.479 237.27 293.417 236.838 292.589 235.974C291.761 235.098 291.347 233.994 291.347 232.662C291.347 231.342 291.761 230.25 292.589 229.386ZM307.174 228.252V230.052C306.922 230.016 306.676 229.998 306.436 229.998C304.852 229.998 304.06 230.886 304.06 232.662V237H302.368V228.342H304.024V229.854C304.552 228.75 305.416 228.198 306.616 228.198C306.808 228.198 306.994 228.216 307.174 228.252ZM307.54 236.73C307.3 236.49 307.18 236.196 307.18 235.848C307.18 235.5 307.3 235.206 307.54 234.966C307.78 234.714 308.074 234.588 308.422 234.588C308.77 234.588 309.064 234.714 309.304 234.966C309.556 235.206 309.682 235.5 309.682 235.848C309.682 236.196 309.556 236.49 309.304 236.73C309.064 236.97 308.77 237.09 308.422 237.09C308.074 237.09 307.78 236.97 307.54 236.73ZM315.76 229.638C315.028 229.638 314.404 229.902 313.888 230.43C313.384 230.958 313.132 231.702 313.132 232.662C313.132 233.61 313.384 234.354 313.888 234.894C314.404 235.434 315.034 235.704 315.778 235.704C316.498 235.704 317.044 235.524 317.416 235.164C317.8 234.804 318.058 234.39 318.19 233.922L319.684 234.57C319.444 235.29 318.988 235.92 318.316 236.46C317.656 237 316.81 237.27 315.778 237.27C314.518 237.27 313.474 236.832 312.646 235.956C311.818 235.08 311.404 233.982 311.404 232.662C311.404 231.318 311.818 230.22 312.646 229.368C313.474 228.504 314.512 228.072 315.76 228.072C316.816 228.072 317.668 228.342 318.316 228.882C318.976 229.422 319.408 230.07 319.612 230.826L318.082 231.474C317.95 230.97 317.698 230.538 317.326 230.178C316.954 229.818 316.432 229.638 315.76 229.638ZM323.363 234.948C323.891 235.488 324.533 235.758 325.289 235.758C326.045 235.758 326.681 235.488 327.197 234.948C327.725 234.396 327.989 233.634 327.989 232.662C327.989 231.702 327.725 230.952 327.197 230.412C326.681 229.86 326.045 229.584 325.289 229.584C324.533 229.584 323.891 229.86 323.363 230.412C322.847 230.952 322.589 231.702 322.589 232.662C322.589 233.634 322.847 234.396 323.363 234.948ZM322.103 229.386C322.943 228.51 324.005 228.072 325.289 228.072C326.573 228.072 327.629 228.51 328.457 229.386C329.297 230.25 329.717 231.342 329.717 232.662C329.717 233.994 329.303 235.098 328.475 235.974C327.647 236.838 326.585 237.27 325.289 237.27C323.993 237.27 322.931 236.838 322.103 235.974C321.275 235.098 320.861 233.994 320.861 232.662C320.861 231.342 321.275 230.25 322.103 229.386ZM333.555 237H331.881V228.342H333.501V229.494C333.765 229.038 334.137 228.69 334.617 228.45C335.097 228.21 335.601 228.09 336.129 228.09C336.693 228.09 337.209 228.228 337.677 228.504C338.145 228.78 338.493 229.188 338.721 229.728C339.321 228.636 340.287 228.09 341.619 228.09C342.447 228.09 343.149 228.372 343.725 228.936C344.313 229.5 344.607 230.316 344.607 231.384V237H342.933V231.564C342.933 230.964 342.777 230.484 342.465 230.124C342.165 229.764 341.709 229.584 341.097 229.584C340.509 229.584 340.029 229.794 339.657 230.214C339.285 230.622 339.099 231.138 339.099 231.762V237H337.407V231.564C337.407 230.964 337.251 230.484 336.939 230.124C336.639 229.764 336.183 229.584 335.571 229.584C334.971 229.584 334.485 229.788 334.113 230.196C333.741 230.604 333.555 231.132 333.555 231.78V237ZM50.63 273.75L52.16 273.21C52.22 273.678 52.424 274.068 52.772 274.38C53.12 274.68 53.588 274.83 54.176 274.83C54.632 274.83 54.992 274.722 55.256 274.506C55.52 274.278 55.652 274.002 55.652 273.678C55.652 273.102 55.28 272.73 54.536 272.562L53.06 272.238C52.388 272.094 51.86 271.806 51.476 271.374C51.092 270.942 50.9 270.42 50.9 269.808C50.9 269.064 51.2 268.422 51.8 267.882C52.412 267.342 53.138 267.072 53.978 267.072C54.53 267.072 55.022 267.156 55.454 267.324C55.886 267.48 56.222 267.69 56.462 267.954C56.702 268.218 56.882 268.464 57.002 268.692C57.122 268.92 57.212 269.154 57.272 269.394L55.778 269.952C55.754 269.808 55.712 269.67 55.652 269.538C55.592 269.394 55.496 269.238 55.364 269.07C55.244 268.902 55.064 268.77 54.824 268.674C54.584 268.566 54.302 268.512 53.978 268.512C53.558 268.512 53.21 268.626 52.934 268.854C52.67 269.082 52.538 269.352 52.538 269.664C52.538 270.216 52.868 270.564 53.528 270.708L54.932 271.014C55.7 271.182 56.288 271.494 56.696 271.95C57.116 272.394 57.326 272.94 57.326 273.588C57.326 274.272 57.044 274.89 56.48 275.442C55.928 275.994 55.154 276.27 54.158 276.27C53.09 276.27 52.256 276.006 51.656 275.478C51.056 274.938 50.714 274.362 50.63 273.75ZM65.1968 274.956C64.9688 275.388 64.6208 275.718 64.1528 275.946C63.6848 276.162 63.1808 276.27 62.6408 276.27C61.6568 276.27 60.8708 275.946 60.2828 275.298C59.6948 274.638 59.4008 273.804 59.4008 272.796V267.342H61.0928V272.544C61.0928 273.192 61.2488 273.726 61.5608 274.146C61.8848 274.566 62.3828 274.776 63.0548 274.776C63.7268 274.776 64.2368 274.578 64.5848 274.182C64.9328 273.774 65.1068 273.234 65.1068 272.562V267.342H66.7988V274.398C66.7988 274.962 66.8288 275.496 66.8888 276H65.2688C65.2208 275.736 65.1968 275.388 65.1968 274.956ZM71.3601 279.42H69.6861V267.342H71.3241V268.692C71.5761 268.236 71.9541 267.864 72.4581 267.576C72.9621 267.288 73.5501 267.144 74.2221 267.144C75.4701 267.144 76.4421 267.57 77.1381 268.422C77.8461 269.274 78.2001 270.354 78.2001 271.662C78.2001 272.982 77.8341 274.074 77.1021 274.938C76.3821 275.802 75.4041 276.234 74.1681 276.234C73.5321 276.234 72.9681 276.102 72.4761 275.838C71.9841 275.574 71.6121 275.238 71.3601 274.83V279.42ZM76.4721 271.662C76.4721 270.786 76.2381 270.066 75.7701 269.502C75.3141 268.926 74.6961 268.638 73.9161 268.638C73.1481 268.638 72.5241 268.926 72.0441 269.502C71.5761 270.066 71.3421 270.786 71.3421 271.662C71.3421 272.562 71.5761 273.3 72.0441 273.876C72.5241 274.44 73.1481 274.722 73.9161 274.722C74.6841 274.722 75.3021 274.44 75.7701 273.876C76.2381 273.3 76.4721 272.562 76.4721 271.662ZM82.03 279.42H80.356V267.342H81.994V268.692C82.246 268.236 82.624 267.864 83.128 267.576C83.632 267.288 84.22 267.144 84.892 267.144C86.14 267.144 87.112 267.57 87.808 268.422C88.516 269.274 88.87 270.354 88.87 271.662C88.87 272.982 88.504 274.074 87.772 274.938C87.052 275.802 86.074 276.234 84.838 276.234C84.202 276.234 83.638 276.102 83.146 275.838C82.654 275.574 82.282 275.238 82.03 274.83V279.42ZM87.142 271.662C87.142 270.786 86.908 270.066 86.44 269.502C85.984 268.926 85.366 268.638 84.586 268.638C83.818 268.638 83.194 268.926 82.714 269.502C82.246 270.066 82.012 270.786 82.012 271.662C82.012 272.562 82.246 273.3 82.714 273.876C83.194 274.44 83.818 274.722 84.586 274.722C85.354 274.722 85.972 274.44 86.44 273.876C86.908 273.3 87.142 272.562 87.142 271.662ZM92.8079 273.948C93.3359 274.488 93.9779 274.758 94.7339 274.758C95.4899 274.758 96.1259 274.488 96.6419 273.948C97.1699 273.396 97.4339 272.634 97.4339 271.662C97.4339 270.702 97.1699 269.952 96.6419 269.412C96.1259 268.86 95.4899 268.584 94.7339 268.584C93.9779 268.584 93.3359 268.86 92.8079 269.412C92.2919 269.952 92.0339 270.702 92.0339 271.662C92.0339 272.634 92.2919 273.396 92.8079 273.948ZM91.5479 268.386C92.3879 267.51 93.4499 267.072 94.7339 267.072C96.0179 267.072 97.0739 267.51 97.9019 268.386C98.7419 269.25 99.1619 270.342 99.1619 271.662C99.1619 272.994 98.7479 274.098 97.9199 274.974C97.0919 275.838 96.0299 276.27 94.7339 276.27C93.4379 276.27 92.3759 275.838 91.5479 274.974C90.7199 274.098 90.3059 272.994 90.3059 271.662C90.3059 270.342 90.7199 269.25 91.5479 268.386ZM106.133 267.252V269.052C105.881 269.016 105.635 268.998 105.395 268.998C103.811 268.998 103.019 269.886 103.019 271.662V276H101.327V267.342H102.983V268.854C103.511 267.75 104.375 267.198 105.575 267.198C105.767 267.198 105.953 267.216 106.133 267.252ZM110.661 264.606V267.342H112.533V268.872H110.661V273.372C110.661 273.78 110.751 274.08 110.931 274.272C111.123 274.464 111.435 274.56 111.867 274.56C112.119 274.56 112.341 274.536 112.533 274.488V275.928C112.245 276.036 111.861 276.09 111.381 276.09C110.637 276.09 110.049 275.874 109.617 275.442C109.185 275.01 108.969 274.404 108.969 273.624V268.872H107.313V267.342H107.781C108.225 267.342 108.555 267.222 108.771 266.982C108.999 266.73 109.113 266.406 109.113 266.01V264.606H110.661ZM124.17 273.534C123.726 273.534 123.342 273.438 123.018 273.246C122.694 273.054 122.484 272.766 122.388 272.382C121.836 273.174 121.122 273.57 120.246 273.57C119.43 273.57 118.764 273.288 118.248 272.724C117.744 272.16 117.492 271.416 117.492 270.492C117.492 269.304 117.846 268.308 118.554 267.504C119.262 266.7 120.108 266.298 121.092 266.298C121.512 266.298 121.902 266.4 122.262 266.604C122.634 266.808 122.886 267.102 123.018 267.486L123.18 266.532H124.602L123.63 271.05C123.594 271.23 123.576 271.398 123.576 271.554C123.576 272.046 123.804 272.292 124.26 272.292C124.764 272.292 125.214 271.95 125.61 271.266C126.006 270.57 126.204 269.772 126.204 268.872C126.204 267.54 125.736 266.442 124.8 265.578C123.876 264.714 122.664 264.282 121.164 264.282C119.568 264.282 118.248 264.816 117.204 265.884C116.16 266.94 115.638 268.32 115.638 270.024C115.638 271.632 116.148 272.952 117.168 273.984C118.2 275.016 119.598 275.532 121.362 275.532C122.766 275.532 123.996 275.112 125.052 274.272L125.79 275.244C125.274 275.724 124.602 276.108 123.774 276.396C122.958 276.696 122.154 276.846 121.362 276.846C119.25 276.846 117.522 276.216 116.178 274.956C114.834 273.684 114.162 272.034 114.162 270.006C114.162 267.954 114.84 266.268 116.196 264.948C117.552 263.628 119.202 262.968 121.146 262.968C122.982 262.968 124.512 263.532 125.736 264.66C126.972 265.776 127.59 267.174 127.59 268.854C127.59 270.186 127.254 271.302 126.582 272.202C125.922 273.09 125.118 273.534 124.17 273.534ZM122.622 269.34C122.622 268.8 122.49 268.386 122.226 268.098C121.962 267.798 121.59 267.648 121.11 267.648C120.486 267.648 119.97 267.918 119.562 268.458C119.166 268.986 118.968 269.598 118.968 270.294C118.968 271.602 119.478 272.256 120.498 272.256C121.11 272.256 121.608 271.986 121.992 271.446C122.388 270.894 122.598 270.192 122.622 269.34ZM131.355 276H129.663V262.968H131.355V276ZM135.331 270.78H140.065C140.041 270.132 139.825 269.604 139.417 269.196C139.009 268.776 138.433 268.566 137.689 268.566C137.017 268.566 136.465 268.788 136.033 269.232C135.601 269.664 135.367 270.18 135.331 270.78ZM140.317 273.03L141.775 273.534C141.523 274.338 141.055 274.998 140.371 275.514C139.687 276.018 138.859 276.27 137.887 276.27C136.675 276.27 135.643 275.856 134.791 275.028C133.951 274.188 133.531 273.06 133.531 271.644C133.531 270.324 133.939 269.232 134.755 268.368C135.571 267.504 136.543 267.072 137.671 267.072C138.979 267.072 139.999 267.486 140.731 268.314C141.463 269.13 141.829 270.228 141.829 271.608C141.829 271.824 141.817 272.004 141.793 272.148H135.277C135.289 272.916 135.541 273.546 136.033 274.038C136.537 274.53 137.155 274.776 137.887 274.776C139.123 274.776 139.933 274.194 140.317 273.03ZM143.359 276.468L144.997 276.09C145.057 276.702 145.303 277.206 145.735 277.602C146.167 278.01 146.707 278.214 147.355 278.214C149.119 278.214 150.001 277.278 150.001 275.406V274.164C149.785 274.584 149.443 274.926 148.975 275.19C148.519 275.454 147.979 275.586 147.355 275.586C146.203 275.586 145.249 275.196 144.493 274.416C143.749 273.624 143.377 272.616 143.377 271.392C143.377 270.204 143.749 269.208 144.493 268.404C145.237 267.588 146.191 267.18 147.355 267.18C148.675 267.18 149.563 267.636 150.019 268.548V267.342H151.693V275.352C151.693 275.928 151.615 276.462 151.459 276.954C151.315 277.458 151.081 277.92 150.757 278.34C150.433 278.76 149.977 279.09 149.389 279.33C148.813 279.57 148.135 279.69 147.355 279.69C146.287 279.69 145.381 279.384 144.637 278.772C143.893 278.172 143.467 277.404 143.359 276.468ZM147.607 274.164C148.339 274.164 148.933 273.912 149.389 273.408C149.845 272.892 150.073 272.22 150.073 271.392C150.073 270.564 149.845 269.898 149.389 269.394C148.933 268.878 148.339 268.62 147.607 268.62C146.863 268.62 146.257 268.872 145.789 269.376C145.333 269.88 145.105 270.552 145.105 271.392C145.105 272.244 145.327 272.922 145.771 273.426C146.227 273.918 146.839 274.164 147.607 274.164ZM155.493 270.78H160.227C160.203 270.132 159.987 269.604 159.579 269.196C159.171 268.776 158.595 268.566 157.851 268.566C157.179 268.566 156.627 268.788 156.195 269.232C155.763 269.664 155.529 270.18 155.493 270.78ZM160.479 273.03L161.937 273.534C161.685 274.338 161.217 274.998 160.533 275.514C159.849 276.018 159.021 276.27 158.049 276.27C156.837 276.27 155.805 275.856 154.953 275.028C154.113 274.188 153.693 273.06 153.693 271.644C153.693 270.324 154.101 269.232 154.917 268.368C155.733 267.504 156.705 267.072 157.833 267.072C159.141 267.072 160.161 267.486 160.893 268.314C161.625 269.13 161.991 270.228 161.991 271.608C161.991 271.824 161.979 272.004 161.955 272.148H155.439C155.451 272.916 155.703 273.546 156.195 274.038C156.699 274.53 157.317 274.776 158.049 274.776C159.285 274.776 160.095 274.194 160.479 273.03ZM165.843 270.996V276H164.151V267.342H165.807V268.584C166.383 267.588 167.271 267.09 168.471 267.09C169.467 267.09 170.229 267.408 170.757 268.044C171.297 268.68 171.567 269.502 171.567 270.51V276H169.875V270.798C169.875 269.346 169.203 268.62 167.859 268.62C167.223 268.62 166.725 268.848 166.365 269.304C166.017 269.748 165.843 270.312 165.843 270.996ZM175.266 271.644C175.266 272.556 175.488 273.3 175.932 273.876C176.388 274.452 177.012 274.74 177.804 274.74C178.56 274.74 179.166 274.446 179.622 273.858C180.078 273.27 180.306 272.52 180.306 271.608C180.306 270.708 180.084 269.982 179.64 269.43C179.196 268.878 178.59 268.602 177.822 268.602C177.054 268.602 176.436 268.884 175.968 269.448C175.5 270.012 175.266 270.744 175.266 271.644ZM180.324 274.83V274.686C180.096 275.13 179.748 275.502 179.28 275.802C178.824 276.09 178.278 276.234 177.642 276.234C176.406 276.234 175.41 275.802 174.654 274.938C173.91 274.062 173.538 272.964 173.538 271.644C173.538 270.384 173.922 269.316 174.69 268.44C175.458 267.552 176.442 267.108 177.642 267.108C178.35 267.108 178.926 267.252 179.37 267.54C179.814 267.816 180.12 268.158 180.288 268.566V262.968H181.962V274.398C181.962 274.986 181.992 275.52 182.052 276H180.414C180.354 275.664 180.324 275.274 180.324 274.83ZM184.3 273.678C184.3 272.934 184.54 272.34 185.02 271.896C185.5 271.44 186.136 271.158 186.928 271.05L189.268 270.708C189.712 270.648 189.934 270.432 189.934 270.06C189.934 269.604 189.778 269.232 189.466 268.944C189.154 268.656 188.686 268.512 188.062 268.512C187.486 268.512 187.03 268.674 186.694 268.998C186.358 269.31 186.16 269.73 186.1 270.258L184.48 269.88C184.564 269.052 184.942 268.38 185.614 267.864C186.286 267.336 187.09 267.072 188.026 267.072C189.25 267.072 190.156 267.372 190.744 267.972C191.332 268.56 191.626 269.316 191.626 270.24V274.578C191.626 275.094 191.662 275.568 191.734 276H190.078C190.018 275.64 189.988 275.25 189.988 274.83C189.748 275.214 189.394 275.55 188.926 275.838C188.47 276.126 187.894 276.27 187.198 276.27C186.346 276.27 185.65 276.018 185.11 275.514C184.57 274.998 184.3 274.386 184.3 273.678ZM187.432 274.848C188.188 274.848 188.794 274.644 189.25 274.236C189.706 273.828 189.934 273.18 189.934 272.292V271.896L187.288 272.292C186.904 272.352 186.598 272.49 186.37 272.706C186.142 272.922 186.028 273.216 186.028 273.588C186.028 273.924 186.154 274.218 186.406 274.47C186.67 274.722 187.012 274.848 187.432 274.848ZM199.068 267.252V269.052C198.816 269.016 198.57 268.998 198.33 268.998C196.746 268.998 195.954 269.886 195.954 271.662V276H194.262V267.342H195.918V268.854C196.446 267.75 197.31 267.198 198.51 267.198C198.702 267.198 198.888 267.216 199.068 267.252ZM203.295 279.618H201.441L203.601 275.046L199.875 267.342H201.819L204.519 273.318L207.111 267.342H208.929L203.295 279.618ZM213.842 268.638C213.11 268.638 212.486 268.902 211.97 269.43C211.466 269.958 211.214 270.702 211.214 271.662C211.214 272.61 211.466 273.354 211.97 273.894C212.486 274.434 213.116 274.704 213.86 274.704C214.58 274.704 215.126 274.524 215.498 274.164C215.882 273.804 216.14 273.39 216.272 272.922L217.766 273.57C217.526 274.29 217.07 274.92 216.398 275.46C215.738 276 214.892 276.27 213.86 276.27C212.6 276.27 211.556 275.832 210.728 274.956C209.9 274.08 209.486 272.982 209.486 271.662C209.486 270.318 209.9 269.22 210.728 268.368C211.556 267.504 212.594 267.072 213.842 267.072C214.898 267.072 215.75 267.342 216.398 267.882C217.058 268.422 217.49 269.07 217.694 269.826L216.164 270.474C216.032 269.97 215.78 269.538 215.408 269.178C215.036 268.818 214.514 268.638 213.842 268.638ZM221.443 270.906V276H219.751V262.968H221.443V268.35C222.019 267.51 222.895 267.09 224.071 267.09C225.067 267.09 225.829 267.408 226.357 268.044C226.897 268.68 227.167 269.502 227.167 270.51V276H225.475V270.798C225.475 269.346 224.803 268.62 223.459 268.62C222.835 268.62 222.349 268.836 222.001 269.268C221.653 269.688 221.467 270.234 221.443 270.906ZM231.532 276H229.858V267.342H231.532V276ZM229.822 264.93C229.594 264.69 229.48 264.402 229.48 264.066C229.48 263.73 229.594 263.442 229.822 263.202C230.062 262.962 230.35 262.842 230.686 262.842C231.022 262.842 231.31 262.962 231.55 263.202C231.79 263.43 231.91 263.718 231.91 264.066C231.91 264.402 231.79 264.69 231.55 264.93C231.31 265.158 231.022 265.272 230.686 265.272C230.35 265.272 230.062 265.158 229.822 264.93ZM239.217 267.252V269.052C238.965 269.016 238.719 268.998 238.479 268.998C236.895 268.998 236.103 269.886 236.103 271.662V276H234.411V267.342H236.067V268.854C236.595 267.75 237.459 267.198 238.659 267.198C238.851 267.198 239.037 267.216 239.217 267.252ZM242.714 273.948C243.242 274.488 243.884 274.758 244.64 274.758C245.396 274.758 246.032 274.488 246.548 273.948C247.076 273.396 247.34 272.634 247.34 271.662C247.34 270.702 247.076 269.952 246.548 269.412C246.032 268.86 245.396 268.584 244.64 268.584C243.884 268.584 243.242 268.86 242.714 269.412C242.198 269.952 241.94 270.702 241.94 271.662C241.94 272.634 242.198 273.396 242.714 273.948ZM241.454 268.386C242.294 267.51 243.356 267.072 244.64 267.072C245.924 267.072 246.98 267.51 247.808 268.386C248.648 269.25 249.068 270.342 249.068 271.662C249.068 272.994 248.654 274.098 247.826 274.974C246.998 275.838 245.936 276.27 244.64 276.27C243.344 276.27 242.282 275.838 241.454 274.974C240.626 274.098 240.212 272.994 240.212 271.662C240.212 270.342 240.626 269.25 241.454 268.386ZM252.907 279.42H251.233V267.342H252.871V268.692C253.123 268.236 253.501 267.864 254.005 267.576C254.509 267.288 255.097 267.144 255.769 267.144C257.017 267.144 257.989 267.57 258.685 268.422C259.393 269.274 259.747 270.354 259.747 271.662C259.747 272.982 259.381 274.074 258.649 274.938C257.929 275.802 256.951 276.234 255.715 276.234C255.079 276.234 254.515 276.102 254.023 275.838C253.531 275.574 253.159 275.238 252.907 274.83V279.42ZM258.019 271.662C258.019 270.786 257.785 270.066 257.317 269.502C256.861 268.926 256.243 268.638 255.463 268.638C254.695 268.638 254.071 268.926 253.591 269.502C253.123 270.066 252.889 270.786 252.889 271.662C252.889 272.562 253.123 273.3 253.591 273.876C254.071 274.44 254.695 274.722 255.463 274.722C256.231 274.722 256.849 274.44 257.317 273.876C257.785 273.3 258.019 272.562 258.019 271.662ZM266.709 267.252V269.052C266.457 269.016 266.211 268.998 265.971 268.998C264.387 268.998 263.595 269.886 263.595 271.662V276H261.903V267.342H263.559V268.854C264.087 267.75 264.951 267.198 266.151 267.198C266.343 267.198 266.529 267.216 266.709 267.252ZM267.972 273.678C267.972 272.934 268.212 272.34 268.692 271.896C269.172 271.44 269.808 271.158 270.6 271.05L272.94 270.708C273.384 270.648 273.606 270.432 273.606 270.06C273.606 269.604 273.45 269.232 273.138 268.944C272.826 268.656 272.358 268.512 271.734 268.512C271.158 268.512 270.702 268.674 270.366 268.998C270.03 269.31 269.832 269.73 269.772 270.258L268.152 269.88C268.236 269.052 268.614 268.38 269.286 267.864C269.958 267.336 270.762 267.072 271.698 267.072C272.922 267.072 273.828 267.372 274.416 267.972C275.004 268.56 275.298 269.316 275.298 270.24V274.578C275.298 275.094 275.334 275.568 275.406 276H273.75C273.69 275.64 273.66 275.25 273.66 274.83C273.42 275.214 273.066 275.55 272.598 275.838C272.142 276.126 271.566 276.27 270.87 276.27C270.018 276.27 269.322 276.018 268.782 275.514C268.242 274.998 267.972 274.386 267.972 273.678ZM271.104 274.848C271.86 274.848 272.466 274.644 272.922 274.236C273.378 273.828 273.606 273.18 273.606 272.292V271.896L270.96 272.292C270.576 272.352 270.27 272.49 270.042 272.706C269.814 272.922 269.7 273.216 269.7 273.588C269.7 273.924 269.826 274.218 270.078 274.47C270.342 274.722 270.684 274.848 271.104 274.848ZM281.57 268.638C280.838 268.638 280.214 268.902 279.698 269.43C279.194 269.958 278.942 270.702 278.942 271.662C278.942 272.61 279.194 273.354 279.698 273.894C280.214 274.434 280.844 274.704 281.588 274.704C282.308 274.704 282.854 274.524 283.226 274.164C283.61 273.804 283.868 273.39 284 272.922L285.494 273.57C285.254 274.29 284.798 274.92 284.126 275.46C283.466 276 282.62 276.27 281.588 276.27C280.328 276.27 279.284 275.832 278.456 274.956C277.628 274.08 277.214 272.982 277.214 271.662C277.214 270.318 277.628 269.22 278.456 268.368C279.284 267.504 280.322 267.072 281.57 267.072C282.626 267.072 283.478 267.342 284.126 267.882C284.786 268.422 285.218 269.07 285.422 269.826L283.892 270.474C283.76 269.97 283.508 269.538 283.136 269.178C282.764 268.818 282.242 268.638 281.57 268.638ZM289.747 264.606V267.342H291.619V268.872H289.747V273.372C289.747 273.78 289.837 274.08 290.017 274.272C290.209 274.464 290.521 274.56 290.953 274.56C291.205 274.56 291.427 274.536 291.619 274.488V275.928C291.331 276.036 290.947 276.09 290.467 276.09C289.723 276.09 289.135 275.874 288.703 275.442C288.271 275.01 288.055 274.404 288.055 273.624V268.872H286.399V267.342H286.867C287.311 267.342 287.641 267.222 287.857 266.982C288.085 266.73 288.199 266.406 288.199 266.01V264.606H289.747ZM295.572 273.948C296.1 274.488 296.742 274.758 297.498 274.758C298.254 274.758 298.89 274.488 299.406 273.948C299.934 273.396 300.198 272.634 300.198 271.662C300.198 270.702 299.934 269.952 299.406 269.412C298.89 268.86 298.254 268.584 297.498 268.584C296.742 268.584 296.1 268.86 295.572 269.412C295.056 269.952 294.798 270.702 294.798 271.662C294.798 272.634 295.056 273.396 295.572 273.948ZM294.312 268.386C295.152 267.51 296.214 267.072 297.498 267.072C298.782 267.072 299.838 267.51 300.666 268.386C301.506 269.25 301.926 270.342 301.926 271.662C301.926 272.994 301.512 274.098 300.684 274.974C299.856 275.838 298.794 276.27 297.498 276.27C296.202 276.27 295.14 275.838 294.312 274.974C293.484 274.098 293.07 272.994 293.07 271.662C293.07 270.342 293.484 269.25 294.312 268.386ZM308.896 267.252V269.052C308.644 269.016 308.398 268.998 308.158 268.998C306.574 268.998 305.782 269.886 305.782 271.662V276H304.09V267.342H305.746V268.854C306.274 267.75 307.138 267.198 308.338 267.198C308.53 267.198 308.716 267.216 308.896 267.252ZM309.263 275.73C309.023 275.49 308.903 275.196 308.903 274.848C308.903 274.5 309.023 274.206 309.263 273.966C309.503 273.714 309.797 273.588 310.145 273.588C310.493 273.588 310.787 273.714 311.027 273.966C311.279 274.206 311.405 274.5 311.405 274.848C311.405 275.196 311.279 275.49 311.027 275.73C310.787 275.97 310.493 276.09 310.145 276.09C309.797 276.09 309.503 275.97 309.263 275.73ZM317.482 268.638C316.75 268.638 316.126 268.902 315.61 269.43C315.106 269.958 314.854 270.702 314.854 271.662C314.854 272.61 315.106 273.354 315.61 273.894C316.126 274.434 316.756 274.704 317.5 274.704C318.22 274.704 318.766 274.524 319.138 274.164C319.522 273.804 319.78 273.39 319.912 272.922L321.406 273.57C321.166 274.29 320.71 274.92 320.038 275.46C319.378 276 318.532 276.27 317.5 276.27C316.24 276.27 315.196 275.832 314.368 274.956C313.54 274.08 313.126 272.982 313.126 271.662C313.126 270.318 313.54 269.22 314.368 268.368C315.196 267.504 316.234 267.072 317.482 267.072C318.538 267.072 319.39 267.342 320.038 267.882C320.698 268.422 321.13 269.07 321.334 269.826L319.804 270.474C319.672 269.97 319.42 269.538 319.048 269.178C318.676 268.818 318.154 268.638 317.482 268.638ZM325.085 273.948C325.613 274.488 326.255 274.758 327.011 274.758C327.767 274.758 328.403 274.488 328.919 273.948C329.447 273.396 329.711 272.634 329.711 271.662C329.711 270.702 329.447 269.952 328.919 269.412C328.403 268.86 327.767 268.584 327.011 268.584C326.255 268.584 325.613 268.86 325.085 269.412C324.569 269.952 324.311 270.702 324.311 271.662C324.311 272.634 324.569 273.396 325.085 273.948ZM323.825 268.386C324.665 267.51 325.727 267.072 327.011 267.072C328.295 267.072 329.351 267.51 330.179 268.386C331.019 269.25 331.439 270.342 331.439 271.662C331.439 272.994 331.025 274.098 330.197 274.974C329.369 275.838 328.307 276.27 327.011 276.27C325.715 276.27 324.653 275.838 323.825 274.974C322.997 274.098 322.583 272.994 322.583 271.662C322.583 270.342 322.997 269.25 323.825 268.386ZM335.278 276H333.604V267.342H335.224V268.494C335.488 268.038 335.86 267.69 336.34 267.45C336.82 267.21 337.324 267.09 337.852 267.09C338.416 267.09 338.932 267.228 339.4 267.504C339.868 267.78 340.216 268.188 340.444 268.728C341.044 267.636 342.01 267.09 343.342 267.09C344.17 267.09 344.872 267.372 345.448 267.936C346.036 268.5 346.33 269.316 346.33 270.384V276H344.656V270.564C344.656 269.964 344.5 269.484 344.188 269.124C343.888 268.764 343.432 268.584 342.82 268.584C342.232 268.584 341.752 268.794 341.38 269.214C341.008 269.622 340.822 270.138 340.822 270.762V276H339.13V270.564C339.13 269.964 338.974 269.484 338.662 269.124C338.362 268.764 337.906 268.584 337.294 268.584C336.694 268.584 336.208 268.788 335.836 269.196C335.464 269.604 335.278 270.132 335.278 270.78V276Z" fill="#00142D"/>
<path d="M25 243H5C3.61929 243 2.5 241.881 2.5 240.5V225.391C2.55826 224.053 3.66067 222.999 5 223H25C26.3807 223 27.5 224.119 27.5 225.5V240.5C27.5 241.881 26.3807 243 25 243Z" fill="#00142D"/>
<path d="M15 235.5L27.5 226.5V223.5L15 233L2.5 223.5V226.5L15 235.5Z" fill="white"/>
</svg>
