<svg width="116" height="20" viewBox="0 0 116 20" fill="none" xmlns="http://www.w3.org/2000/svg">
<g clip-path="url(#clip0_1050_8218)">
<path d="M19.9479 7.67197C19.8169 7.26699 19.4577 6.97935 19.0328 6.94105L13.2602 6.4169L10.9776 1.0742C10.8093 0.682654 10.426 0.429199 10.0001 0.429199C9.57422 0.429199 9.19091 0.682654 9.0226 1.07512L6.73998 6.4169L0.966514 6.94105C0.542309 6.98027 0.184023 7.26699 0.0523365 7.67197C-0.0793503 8.07695 0.0422654 8.52114 0.363166 8.80115L4.72653 12.6278L3.43987 18.2956C3.34573 18.7123 3.50747 19.1431 3.85325 19.393C4.0391 19.5273 4.25655 19.5956 4.47582 19.5956C4.66488 19.5956 4.85242 19.5447 5.02073 19.444L10.0001 16.468L14.9776 19.444C15.3419 19.6631 15.801 19.6431 16.146 19.393C16.492 19.1423 16.6536 18.7114 16.5594 18.2956L15.2728 12.6278L19.6361 8.80191C19.957 8.52114 20.0796 8.07771 19.9479 7.67197Z" fill="#FFC107"/>
</g>
<g clip-path="url(#clip1_1050_8218)">
<path d="M43.9479 7.67197C43.8169 7.26699 43.4577 6.97935 43.0328 6.94105L37.2602 6.4169L34.9776 1.0742C34.8093 0.682654 34.426 0.429199 34.0001 0.429199C33.5742 0.429199 33.1909 0.682654 33.0226 1.07512L30.74 6.4169L24.9665 6.94105C24.5423 6.98027 24.184 7.26699 24.0523 7.67197C23.9206 8.07695 24.0423 8.52114 24.3632 8.80115L28.7265 12.6278L27.4399 18.2956C27.3457 18.7123 27.5075 19.1431 27.8532 19.393C28.0391 19.5273 28.2565 19.5956 28.4758 19.5956C28.6649 19.5956 28.8524 19.5447 29.0207 19.444L34.0001 16.468L38.9776 19.444C39.3419 19.6631 39.801 19.6431 40.146 19.393C40.492 19.1423 40.6536 18.7114 40.5594 18.2956L39.2728 12.6278L43.6361 8.80191C43.957 8.52114 44.0796 8.07771 43.9479 7.67197Z" fill="#FFC107"/>
</g>
<g clip-path="url(#clip2_1050_8218)">
<path d="M67.9479 7.67197C67.8169 7.26699 67.4577 6.97935 67.0328 6.94105L61.2602 6.4169L58.9776 1.0742C58.8093 0.682654 58.426 0.429199 58.0001 0.429199C57.5742 0.429199 57.1909 0.682654 57.0226 1.07512L54.74 6.4169L48.9665 6.94105C48.5423 6.98027 48.184 7.26699 48.0523 7.67197C47.9206 8.07695 48.0423 8.52114 48.3632 8.80115L52.7265 12.6278L51.4399 18.2956C51.3457 18.7123 51.5075 19.1431 51.8532 19.393C52.0391 19.5273 52.2565 19.5956 52.4758 19.5956C52.6649 19.5956 52.8524 19.5447 53.0207 19.444L58.0001 16.468L62.9776 19.444C63.3419 19.6631 63.801 19.6431 64.146 19.393C64.492 19.1423 64.6536 18.7114 64.5594 18.2956L63.2728 12.6278L67.6361 8.80191C67.957 8.52114 68.0796 8.07771 67.9479 7.67197Z" fill="#FFC107"/>
</g>
<g clip-path="url(#clip3_1050_8218)">
<path d="M91.9479 7.67197C91.8169 7.26699 91.4577 6.97935 91.0328 6.94105L85.2602 6.4169L82.9776 1.0742C82.8093 0.682654 82.426 0.429199 82.0001 0.429199C81.5742 0.429199 81.1909 0.682654 81.0226 1.07512L78.74 6.4169L72.9665 6.94105C72.5423 6.98027 72.184 7.26699 72.0523 7.67197C71.9206 8.07695 72.0423 8.52114 72.3632 8.80115L76.7265 12.6278L75.4399 18.2956C75.3457 18.7123 75.5075 19.1431 75.8532 19.393C76.0391 19.5273 76.2565 19.5956 76.4758 19.5956C76.6649 19.5956 76.8524 19.5447 77.0207 19.444L82.0001 16.468L86.9776 19.444C87.3419 19.6631 87.801 19.6431 88.146 19.393C88.492 19.1423 88.6536 18.7114 88.5594 18.2956L87.2728 12.6278L91.6361 8.80191C91.957 8.52114 92.0796 8.07771 91.9479 7.67197Z" fill="#FFC107"/>
</g>
<g clip-path="url(#clip4_1050_8218)">
<path d="M115.948 7.67197C115.817 7.26699 115.458 6.97935 115.033 6.94105L109.26 6.4169L106.978 1.0742C106.809 0.682654 106.426 0.429199 106 0.429199C105.574 0.429199 105.191 0.682654 105.023 1.07512L102.74 6.4169L96.9665 6.94105C96.5423 6.98027 96.184 7.26699 96.0523 7.67197C95.9206 8.07695 96.0423 8.52114 96.3632 8.80115L100.727 12.6278L99.4399 18.2956C99.3457 18.7123 99.5075 19.1431 99.8532 19.393C100.039 19.5273 100.257 19.5956 100.476 19.5956C100.665 19.5956 100.852 19.5447 101.021 19.444L106 16.468L110.978 19.444C111.342 19.6631 111.801 19.6431 112.146 19.393C112.492 19.1423 112.654 18.7114 112.559 18.2956L111.273 12.6278L115.636 8.80191C115.957 8.52114 116.08 8.07771 115.948 7.67197Z" fill="#FFC107"/>
</g>
<defs>
<clipPath id="clip0_1050_8218">
<rect width="20" height="20" fill="white"/>
</clipPath>
<clipPath id="clip1_1050_8218">
<rect width="20" height="20" fill="white" transform="translate(24)"/>
</clipPath>
<clipPath id="clip2_1050_8218">
<rect width="20" height="20" fill="white" transform="translate(48)"/>
</clipPath>
<clipPath id="clip3_1050_8218">
<rect width="20" height="20" fill="white" transform="translate(72)"/>
</clipPath>
<clipPath id="clip4_1050_8218">
<rect width="20" height="20" fill="white" transform="translate(96)"/>
</clipPath>
</defs>
</svg>
